<?xml version="1.0" encoding="UTF-8"?><svg id="b" xmlns="http://www.w3.org/2000/svg" width="283" height="354" viewBox="0 0 283 354"><defs><style>.d{fill:#005899;}</style></defs><g id="c"><path class="d" d="M154.28,253.04l-.17.46s-1.65,5.41-7.33,9.31l-3.76,2.54c-3.2,2.18-5.18,3.53-5.71,4.59l-.2.33-.26-.33c-.63-.66-3.8-4.03-7.89-6.24-4.75-2.57-8.88-9.84-9.14-12.15v-.2l.2-.07s2.18-.4,3.53-3.23c1.32-2.77,6.47-7.76,12.15-8.02h.53l-.33-.4c-.99-1.09-3.1-2.9-6.3-2.9h-.4l.17-.33s1.78-3.6,7.46-5.87l.26-.13-.13-.23c-.4-.63-1.62-2.21-4.42-3.53l-.17-.07v-.23s.56-2.24,3.5-3.23l.33-.17-.23-.26c-.69-.79-1.06-1.65-1.06-2.74,0-.66.13-1.39.43-2.18l.07-.2s.07-.07.07-.1h0c.13-.43.26-.86.26-.86.92-2.64,1.35-4.42,1.35-5.41v-.66l.43.36c.17.13.92.92.92,3.5,0,.26-.07,1.12-.2,2.31v.17c0,.26-.03.63-.03.66h0s-.07.26-.07.33c0,2.74,2.05,4.92,3.04,5.54l.46.3-.53.13c-.17.07-.73.26-1.39.56-.63.33-1.39.83-1.91,1.49l-.2.23.26.13c1.49.79,5.02,2.84,5.84,5.08l.1.33h-.36s-4.55.13-6.4,3.5l-.17.26.3.1c2.01.59,8.61,3,9.67,9.01l.07.46-.43-.2s-2.77-1.25-6.07-1.25c-3.5,0-6.3,1.35-8.32,4.03-2.74,3.56-1.75,7.43-.07,9.64,1.42,1.82,3.5,2.9,5.58,2.9.69,0,1.39-.1,2.08-.33,3.17-1.02,4.06-3.5,3.86-5.28-.2-1.85-1.42-3.17-3.1-3.4-1.39-.2-1.72.4-1.91.96-.17.43-.1.86.17,1.22.1.17.33.3.5.3.23,0,.46.13.56.36.17.3.07.69-.2,1.09-.2.23-.83.86-2.18.86-.26,0-.53,0-.83-.07-1.55-.23-2.9-2.38-2.9-4.69,0-2.64,1.75-4.46,4.65-4.92.73-.1,1.39-.17,2.05-.17,4.75,0,7.36,2.87,9.27,4.92,1.39,1.52,2.34,2.44,3.43,2.44.2,0,.43-.07.66-.13l.5-.17.07-.07ZM127.19,29.11c-.23.53-.46,1.09-.59,1.68l-21.16-5.64-2.44-4.16,6.17-.53,18.02,8.68v-.03ZM129.53,25.81c-.53.5-1.02,1.09-1.45,1.72l-16.01-10.4-.63-5.41,5.51,1.09s12.57,13,12.57,13ZM133.36,23.4c-.69.26-1.39.59-2.01.96l-9.84-15.02.92-5.35,5.15,2.57,5.78,16.8v.03ZM141.48,5.41l-2.54,17.36c-.53-.07-1.06-.1-1.55-.1h-.2c-.53,0-1.06.07-1.58.1l-2.54-17.36,4.19-5.41s4.22,5.41,4.22,5.41ZM153.03,9.34l-9.87,15.02c-.59-.4-1.29-.69-1.95-.96l5.74-16.8,5.18-2.57.92,5.35-.03-.03ZM163.1,11.72l-.66,5.41-15.97,10.4c-.46-.63-.92-1.19-1.45-1.72l12.57-13s5.51-1.09,5.51-1.09ZM171.55,20.96l-2.48,4.16-21.12,5.64c-.17-.59-.36-1.12-.59-1.68l18.02-8.65,6.17.5v.03ZM179.73,33.76l-3.8,2.9-27.59-2.28v-.69c0-.23,0-.46-.03-.69l26.24-2.05,5.15,2.77.03.03ZM186.76,49.57l-5.08,1.09-33.93-13.2c.1-.36.23-.73.33-1.09l34.29,7.59,4.42,5.58-.03.03ZM193.1,70.03l-6.44.3-40.26-30.3c.13-.23.3-.43.43-.66l43.63,24.19,2.67,6.5-.03-.03ZM198.58,93.96l-7.26-.79-46.47-51.42c.2-.13.33-.3.53-.46l51.02,46.24s2.18,6.44,2.18,6.44ZM197.52,118.65v8.45l-7.89-2.71-46.7-81.19c.2-.1.4-.23.56-.33,0,0,54.03,75.78,54.03,75.78ZM189.5,157.79l-1.35,9.6-9.93-5.81-37.23-117.53s.26-.1.4-.17l48.09,113.86.03.03ZM133.56,44.09l-37.26,117.53-9.87,5.81-1.39-9.6,48.12-113.86s.26.1.4.17M131.61,43.17l-46.7,81.19-7.89,2.71v-8.45l54.03-75.78s.36.23.56.33M129.7,41.75l-46.44,51.42-7.26.79,2.15-6.44,51.06-46.24s.33.33.5.46M128.15,40.03l-40.3,30.26-6.44-.26,2.71-6.5,43.6-24.19c.13.23.26.43.43.66M126.83,37.46l-33.99,13.2-5.05-1.09,4.46-5.58,34.26-7.59c.07.36.2.73.33,1.09M126.2,33.7v.69l-27.59,2.28-3.8-2.9,5.15-2.77,26.24,2.05v.69M104.88,210.4c-1.25.4-2.34.43-3,.4.13-.23.26-.5.33-.86l1.85.4s.33.07.86.07M160.16,213.34c0,.63.23,1.16.56,1.58-7.72.76-17.29,1.09-21.95,1.25.07-.69.17-1.49.17-1.82,0-2.71-.83-3.63-1.12-3.83l-1.25-1.06v1.72c0,.89-.4,2.54-1.22,4.98-4.52-.17-14.13-.5-21.65-1.25.33-.43.56-.96.56-1.58,0-1.19-.83-2.21-1.91-2.48,1.02-.23,1.82-1.12,1.91-2.21,1.62,0,2.74-.36,3-.46h.59c1.75.03,2.9-.4,3.07-.43h.56c1.78.07,2.81-.26,2.97-.3h.73c1.55,0,2.44-.2,2.67-.26h1.55c1.35,0,2.05-.17,2.18-.2h1.68c1.35,0,1.98-.17,1.98-.17.07,0,.07-.03.07-.03.63.03,1.29.07,1.98.07h.4c.56,0,1.09,0,1.55-.07,0,0,.03,0,.07.03,0,0,.66.17,2.01.17h1.65c.13,0,.83.2,2.18.2h1.55c.23.07,1.09.3,2.64.26h.76c.17,0,1.19.4,2.94.33h.63s1.29.46,3.04.43h.59c.23.1,1.35.5,3,.46.1,1.09.89,1.98,1.91,2.21-1.12.26-1.95,1.25-1.95,2.48M164.81,232.94c0,1.12-.92,2.05-2.05,2.05-.26,0-.5-.07-.73-.17.89-.56,2.01-1.42,2.34-2.31.07-.2.17-.4.2-.63.17.3.26.69.26,1.02M164.75,237.86c0,1.16-.92,2.05-2.05,2.05s-2.05-.89-2.05-2.05.92-2.05,2.05-2.05,2.05.92,2.05,2.05M164.75,242.81c0,1.12-.92,2.01-2.05,2.01s-2.05-.92-2.05-2.01.92-2.08,2.05-2.08,2.05.92,2.05,2.08M164.75,247.73c0,1.16-.92,2.05-2.05,2.05s-2.05-.92-2.05-2.05.92-2.05,2.05-2.05,2.05.92,2.05,2.05M164.65,251.98c-.2.76-.33,1.42-.46,2.08h-.03c-.4.4-.92.59-1.45.59-1.12,0-2.05-.92-2.05-2.05s.92-2.08,2.05-2.08c.89,0,1.68.59,1.98,1.42M163.86,255.88c-.17,1.02-.3,2.28-.46,3.63-.2.07-.46.1-.69.1-1.12,0-2.05-.89-2.05-2.05s.92-2.05,2.05-2.05c.43,0,.83.13,1.16.4M163.29,260.5c-.17,1.32-.3,2.67-.4,4.03h-.13c-1.19,0-2.11-.92-2.11-2.05s.92-2.05,2.05-2.05c.2,0,.4,0,.59.07M162.8,265.35c-.13,1.49-.23,2.87-.33,4.09-.99-.13-1.82-.99-1.82-2.05,0-1.12.92-2.05,2.05-2.05h.1M162.37,270.27c-.07,1.09-.13,1.91-.17,2.41-.2-.1-.33-.23-.53-.33-.3-.23-.63-.46-.89-.63.23-.76.83-1.32,1.62-1.42M182.31,292.55c-.59.43-1.65.89-3.53.96-3.76.13-7-.36-7.59-.66-.1-.36-.1-.69-.1-.96,0-.46,0-.92-.46-1.35-.1-.07-.23-.07-.33,0-.1.1-.07.23,0,.33.3.3.3.56.33.99,0,.33,0,.69.13,1.12h0s.03.17.07.26c-1.09,0-4.65-.07-5.87-2.67-.53-1.12-.63-2.05-.36-2.64.2-.43.56-.53.69-.56,2.77,1.02,5.68,1.16,5.87,1.19h1.02l-.89-.5c-1.78-.92-2.61-1.72-3.07-2.94.2-.23.76-.86,1.58-1.16,1.06.3,1.95.46,2.57.53h0c.92.59,1.65,1.65,2.34,2.67.46.63.89,1.29,1.39,1.78-1.29.13-2.64.17-2.84,0-.13-.07-.26-.07-.36.07-.1.1-.07.23.03.33.2.17.73.23,1.35.23.59,0,1.25-.03,1.82-.1.43.59,2.48,3.1,5.05,3.1.43,0,.83,0,1.12-.07M162.3,278.68c-.36.23-.83.36-1.32.36-1.22,0-2.51-.79-2.71-2.64-.17-1.95.69-4.39,1.09-5.41.43.69,1.22,1.19,2.01,1.72,1.12.69,2.21,1.45,2.54,2.54.63,2.05-1.55,3.33-1.65,3.4M162.9,286.24c-.07.53-.33,2.77-1.35,4.06-.3-.76-1.02-2.48-2.94-4.09-1.25-1.06-1.95-2.94-1.82-4.75.1-1.42.69-2.57,1.62-3.27.5.69,1.16,1.12,1.91,1.29-.36.66-.86,2.11.5,4.52.46.96,1.22,1.65,2.05,2.28M170.09,288.06c-2.21-.26-7.23-1.16-8.85-4.32-1.42-2.57-.63-3.93-.36-4.22h.13c.56,0,1.12-.13,1.58-.43,0,0,.79-.46,1.35-1.25.2-.1,1.72-.73,2.81.79,1.25,1.62,1.12,3.3.96,4.62-.1.76-.17,1.42,0,1.98h0c.43,1.32,1.22,2.11,2.38,2.84M168.21,282.91c.17-1.35.2-3-1.02-4.59-.92-1.29-2.18-1.25-2.9-1.12,0,0,0-.03.03-.07.03,0,2.57-1.62,4.82-1.02.99.23,1.78.89,2.34,1.91.69,1.45.96,3.14,1.22,4.49.13.69.2,1.22.3,1.65-.73-.03-2.71-.26-4.79-1.25M179.8,280.8c-1.95,3.93-5.61,3.2-6.37,3.04-.1-.36-.17-.83-.26-1.35-.23-1.39-.53-3.14-1.25-4.65-.63-1.16-1.52-1.88-2.67-2.18-.76-.2-1.52-.17-2.24-.03.26-.96,1.68-1.25,1.68-1.25,3.4-.56,3.96.83,4.82,2.87.33.79.69,1.72,1.29,2.57.63.92,1.39,1.45,2.28,1.58,1.06.17,2.05-.23,2.74-.59M188.21,280.7h0c-.73,2.18-2.15,4.13-4.16,5.41-3.47,2.21-8.68.46-9.27.26-.46-.66-.96-1.29-1.52-1.78h.5l-.17-.3c.3.07.76.1,1.25.1.33,0,.76,0,1.19-.1l.76.2c.53.07,1.06.1,1.55.1,2.01,0,3.86-.59,5.28-1.65,1.32-1.02,2.18-2.41,2.38-3.73.33-3-.73-4.03-1.68-4.39-.59-.2-1.16,0-1.65.13-.53.17-1.06.36-1.75.17-.86-.17-1.32-.66-1.58-1.06-.36-.66-.46-1.39-.26-1.82.23-.66-.07-1.39-.3-1.82h.03v.03h.03c1.35,0,1.82.79,1.85.86.07.13.2.17.33.1.1-.03.17-.2.1-.3-.03-.07-.56-1.02-2.05-1.12.2-4.36,2.71-6.17,3.89-6.77-.89,1.95-.13,3.76.36,4.22.36.3.86,1.49,1.02,2.01-.17.5-.36,1.19-.36,2.01,0,.13.13.23.23.23.13,0,.26-.1.26-.23,0-.76.13-1.35.33-1.78.1.23.26.46.53.73.13.1.26.2.4.3.69.53,1.58,1.12,2.51,3.8.66,2.01.63,4.16,0,6.17M193.3,283.4c-.59,1.65-2.64,6.63-6.63,7.03-1.65.2-2.87-.13-3.7-.86-.83-.76-.92-1.82-.92-2.08.79-.2,1.55-.5,2.28-.96,1.32-.83,2.38-1.91,3.17-3.17.26-.07,1.68-.53,3.53-.1,1.16.26,1.88.23,2.31.13M196.33,266.01c-.43,1.25-.96,3.27-1.12,5.74-.2,3.33-1.22,3.83-1.45,3.89-1.09-.69-2.24-.17-2.74.2-.1.1-.1.23-.03.36.03.07.13.07.13.07.13,0,.17,0,.23-.03,0,0,1.06-.83,2.11-.17,0,1.25-.36,4.13-1.65,4.52-1.32.36-2.54.17-3.04.07.59-2.01.59-4.19-.07-6.24-.23-.66-.46-1.19-.66-1.62,0-.46.4-3.56,3.1-4.88,1.45-.73,2.41-.86,3.17-.99.63-.07,1.12-.13,1.55-.46.2-.17.4-.26.53-.43M199.53,250.4c-.36.56-.3,1.16-.23,1.82,0,.4.07.83.03,1.35-.07.92-.89,1.58-1.65,2.15-.26.2-.53.43-.69.63-.43.43-.33,1.16-.17,2.11s.36,2.18-.07,3.3c-.53,1.45-1.98,1.75-3.27,2.01-.63.13-1.19.26-1.55.5-1.06.63-1.19,2.74-1.19,3.3-2.21,1.16-2.9,3.37-3.14,4.52-.56-.92-1.12-1.35-1.58-1.72-.13-.1-.26-.17-.4-.26-.56-.5-.43-1.12-.43-1.12l.4-1.35-.86,1.12s-.07.1-.1.2c-.07-.13-.1-.26-.17-.4-.07-.26-.63-3.4.13-5.87,1.29-4.22,4.19-4.85,5.45-5.12.13,0,.23-.03.33-.07.63-.17.89-.76,1.02-1.29.86,2.31-.76,5.25-.79,5.28-.07.13,0,.26.1.33.1.03.26,0,.3-.1.1-.1,1.22-2.21,1.09-4.36.46-2.31,2.48-2.84,3.14-2.84,1.06,0,1.88-.56,2.31-1.58.66-1.52,1.06-1.88,1.29-1.95.36-.1.69-.76.96-1.35,0,.26-.1.5-.23.76M169.93,268.72s-.13.23-.03.33c.2.26.83.5,1.39.43.4-.07.73-.3.92-.63.2-.4.59-.56.92-.63h0c-.13.4-.23.89-.33,1.42-.17,1.02-.36,2.15-1.12,2.67-.5.33-1.16.43-2.08.26-.56-.13-.92-.4-1.22-.83.13-.5.1-.86-.1-1.19-.33-.43-.92-.43-.92-.43-.69-.1-1.32.5-1.72.96.03-1.06.17-2.24.3-3.56v-.03s.36-2.11,2.51-2.87c1.09-.4,1.88-.2,2.64,0,.56.17,1.12.3,1.78.2.83-.13,1.65-.69,2.18-1.16-.07.5-.2,1.25-.43,1.88-.33.92-1.32,1.95-1.58,2.21-.46.1-1.02.33-1.32.89-.1.23-.3.33-.56.36-.43.03-.86-.13-.92-.23-.07-.13-.23-.13-.33-.07M181.05,240.86c-.1.73-.3,1.98-.73,3.14-.66,1.72-1.91,2.38-1.91,2.38,0,0-.03.03-.03.07-.3.07-.63.2-.96.4-.2.17-.66.1-1.12,0-.96-.13-2.41-.26-2.67,1.42,0,.13.1.23.23.26.13,0,.26-.1.3-.23.17-1.12.96-1.12,2.15-.99.59.07,1.12.13,1.42-.1.36-.3.79-.4,1.09-.4-.3.46-.5,1.19-.69,1.95-.2.96-.46,2.01-1.06,2.67-1.39,1.62-3.7,1.19-4.42,1.02.07-.26.1-.63-.07-1.02-.2-.36-.63-.63-1.25-.73-1.12-.17-2.28.73-2.94,1.45.76-3.4,1.62-6.5,2.48-9.34,1.19-1.52,3.37-.83,4.09-.59.1,0,.13.03.17.07,2.84.63,5.05-.79,5.97-1.52M177.45,253.63c-.1.59-.23,1.45-.43,1.95-.36.86-1.45,1.82-1.45,1.82h0c-.4.1-.86.3-1.29.63-.13.13-.46.07-.83,0-.5-.1-1.09-.23-1.58.1-.99.56-.83,1.39-.83,1.42,0,.13.13.23.23.23.13,0,.23-.13.23-.26,0,0-.07-.53.63-.96.33-.2.79-.13,1.25-.03s.92.2,1.22-.1c.36-.3.83-.46,1.16-.56-.1.23-.17.53-.23.83-.1.73-.26,1.58-.96,2.64-.96,1.39-2.9,1.29-3.63,1.19.17-.53.17-1.32-.66-1.75-1.35-.73-2.87.59-3.63,1.45.23-1.88.53-3.89.92-6.07.66-1.88,2.48-2.44,5.38-1.62,2.18.66,3.73-.3,4.49-.96M183.79,229.48c-.07.79-.17,1.95-.4,2.84-.3,1.09-1.16,2.18-1.42,2.51-.56,0-1.25.1-1.65.5-.13.13-.63,0-1.09-.03-.83-.2-2.01-.43-2.61.59-.07.1-.03.26.07.3.13.07.3.03.33-.1.4-.66,1.12-.56,2.11-.4.63.13,1.16.26,1.49-.07.23-.23.76-.33,1.22-.33-.33.4-.63.92-.99,1.62-.3.56-.63,1.22-1.12,1.95-1.02,1.55-3.04,1.72-3.76,1.72h0c.03-.53-.07-1.29-.79-1.72-1.42-.79-2.67,0-3.43.69.69-2.38,1.35-4.59,1.72-6.63.76-1.65,3.7-1.45,5.64-1.29.79.03,1.39.07,1.72,0,1.19-.26,2.28-1.45,2.9-2.21M164.22,230.4c0,.33,0,1.19-.3,1.98-.4,1.06-2.34,2.21-2.9,2.54-.3.13-.5.33-.69.56.1-.46.2-.96.26-1.42.1-.33.23-.63.43-.96.33-.66.66-1.39.59-2.67.2-.13.69-.3,1.32-.3.43,0,.86.1,1.29.3M164.91,229.41c0,.23-.3.46-.5.56-.5-.23-.99-.33-1.52-.33-.73,0-1.25.23-1.52.36-.17-.2-.43-.63-.36-1.09.13-.53.86-.76,2.15-.76,1.75,0,1.75.86,1.75,1.29M173.49,228.91c0,3.4-1.22,7.49-2.64,12.28-.13.5-.3.99-.43,1.49h0v.17c-1.19,3.89-2.38,8.28-3.23,13.3-2.05,11.45-2.15,19.01-2.15,20.17-.17.1-.33.17-.46.23.07-.43.07-.86-.13-1.35-.26-.92-.92-1.55-1.72-2.15.07-1.25.86-11.85,1.65-17.1.76-4.82,4.09-16.34,5.38-20.66.2-.73.36-1.29.43-1.55.43-1.49,1.25-5.18-.07-6.93-.46-.66-1.19-.92-2.11-.92-1.09.03-1.82.43-2.31.89-.53.46-.79.96-.92,1.25-.36-.23-.83-.36-1.52-.36-.96,0-1.62.13-2.08.43-.26-.43-.96-1.65-.43-2.71.53-1.02.86-2.15.99-2.87.1.1.23.17.26.26.03,0,.03.03.03.03.26.23.5.46.73.66.3.23.59.5.83.73.46.56.13,1.91-.07,2.38-.03.13,0,.26.13.3.13.07.26,0,.3-.13,0-.07.1-.3.17-.59.1-.2,1.29-2.54,4.65-2.54,2.94,0,4.75,2.01,4.75,5.31M179.66,225.15s0,.26.07.33c.1.1.23.07.33-.03.2-.26,1.65,0,2.64.4.33.13.83.1,1.25,0-.53.5-1.29,1.29-2.24,2.18-1.62,1.58-4.52,2.24-5.91,1.35-1.02-.69-.99-1.85-.89-2.34.26.07.73.17,1.02-.07.33-.17.5-.56.53-1.09,0-.56-.23-.99-.76-1.19-.79-.33-2.05,0-2.74.63-.76-1.19-1.88-1.95-3.3-2.18,0-.5.1-1.98,1.42-2.57.86-.36,1.98-.53,2.87-.66.69-.1,1.25-.2,1.62-.36.1.79.07,1.62-.17,1.72-.1.03-.17.2-.13.33.07.1.2.17.33.13.5-.2.56-.96.5-1.65.33-.13,1.58-.69,2.84-.33.26.1.56.2.89.3,1.91.76,5.02,1.91,7.62-1.06-.53,4.32-3.27,6.14-3.56,6.34-.36.07-.79.1-1.02,0,0,0-2.64-1.02-3.23-.23M195.54,193.2c-.13.3-.23.69-.3,1.16-.17,1.42-.23,2.21-1.29,3.4-.83.96-.83,1.49-.83,2.94,0,.53,0,1.25-.07,2.15-.1,2.34-1.85,2.9-3.14,3.33-.43.13-.79.23-1.02.4-.63.53-.73,1.55-.73,2.05-1.39.3-2.54,1.09-3.27,2.41.07-.59.03-1.39-.33-2.08-.07-.13-.13-.3-.26-.46-.46-.89-.92-1.75-.89-2.94v-.03c.56-2.34,2.34-3.27,3.8-3.66.83-.2,1.29-.86,1.52-1.32.3,1.02-.13,2.77-.33,3.4-.03.13.03.26.17.3.1.03.23,0,.3-.13,0-.07.2-.66.33-1.45.3-.1.69-.36.92-.76.2-.36.36-.92,0-1.58-.3-.53-.33-1.19-.13-1.82.23-.59.66-1.02,1.29-1.32.33-.1.59-.2.86-.26.92-.33,1.58-.53,2.01-1.85.26-.76.86-1.42,1.39-1.85M175.77,214.92c0,1.29-.2,3.4-1.09,4.42-.2.07-.46.07-.73.13-.92.13-2.08.3-3,.69-1.52.66-1.68,2.31-1.68,2.94h-.53c-1.19,0-2.15.3-2.87.69-.07-.83-.17-3,1.19-4.19.86-.76,2.24-1.25,3.73-1.78,2.01-.73,4.06-1.49,4.98-2.87M192.04,208.12c-.43.89-1.02,1.68-1.72,2.18-1.06.69-1.19,1.35-1.32,3.73-.07,1.35-.56,2.67-.96,3.47l-.4.59c-2.51,3.47-5.45,2.34-7.62,1.52h-.1c0-.2.03-.63.56-.86.13-.03.33-.1.56-.13.99-.33,2.71-.86,3.5-2.71.63-1.49.56-2.34.5-3.1,0-.33-.03-.66,0-.99.69-1.55,1.82-2.51,3.3-2.77h.07s.13,0,.2-.07c.23,0,.43-.07.66-.07h.07c.86,0,2.01-.5,2.74-.86M184.09,215.75c-.69,1.65-2.21,2.11-3.2,2.41-.2.1-.43.17-.59.2-.59.23-.79.73-.83,1.12-.1-.07-.23-.1-.33-.13-.66-.23-1.39-.17-1.95-.03.92-.63,2.01-1.78,1.98-3.86h.13c.36,0,.83-.1,1.29-.53,1.19-1.39.63-2.48.03-3.56-.3-.59-.66-1.29-.66-2.05.03-2.44,2.15-3.86,3.07-4.42-.26,1.65.33,2.71.89,3.8.07.13.17.3.23.43.5,1.02.23,2.31.13,2.64-.46.3-1.22.83-1.52,1.58-.07.13,0,.26.13.33.1.03.26,0,.3-.1.26-.63.89-1.12,1.32-1.39,0,.23,0,.5.03.69.07.73.13,1.52-.46,2.87M176.1,219.34s-.03-.13-.03-.17l-.1-.5-.33.36s-.13.1-.23.13c1.06-1.88.83-5.21.83-5.35l-.13-1.68-.36,1.62c-.4,1.88-2.81,2.74-5.12,3.6-1.52.56-2.97,1.06-3.86,1.85-1.72,1.45-1.45,4.16-1.35,4.85-.46.3-.86.69-1.12,1.02,0-.46-.1-.89-.36-1.22-.26-.26-.56-.53-.86-.76-.23-.2-.43-.4-.66-.59-.07-.5-.46-3.6,1.68-5.41,1.22-1.06,2.08-1.58,2.64-1.95.36-.23.66-.4.86-.63,0,.2.07.63.07,1.22-.07.4-.1.86,0,1.39,0,.13.13.2.2.2h.07s.23-.13.23-.3c-.43-2.15,1.39-2.81,3.3-3.3.3-.07.53-.13.73-.2.79-.26,1.29-.76,1.55-1.09.36,1.06.07,2.15.07,2.15-.07.13,0,.26.13.3.13.07.26,0,.3-.13,0,0,.07-.23.13-.53.04-.2.04-.21,0-.03.33-.53.4-.92.46-1.42.07-.53.13-1.19.69-2.31.13-.23.23-.43.36-.59h0c.69-.96,1.52-1.16,2.01-1.22-.83,1.58-.17,3.14.23,4.19.13.4.3.73.33.99.92,3.86-1.52,5.15-2.34,5.48M163.86,216.6s-.07.1-.13.13c-1.16.99-1.65,2.28-1.85,3.43-.76-.33-1.25-1.02-1.25-1.88,0-1.16.92-2.05,2.05-2.05.43,0,.86.13,1.16.36M161.38,221.59v.17s-.2,1.02-.59,2.15c-.1-.26-.13-.5-.13-.76,0-.59.3-1.16.73-1.52M113.76,223.11c0,.23,0,.5-.1.69-.4-1.09-.53-2.08-.53-2.08v-.1c.4.36.66.92.66,1.49M164.75,213.34c0,1.16-.92,2.05-2.05,2.05s-2.05-.89-2.05-2.05.92-2.05,2.05-2.05,2.05.89,2.05,2.05M164.52,209.34c-.33.69-1.06,1.16-1.85,1.16-1.06,0-1.91-.79-2.01-1.82h.26c.23.07,1.32.43,3.3.63.1,0,.2,0,.3.03M113.72,208.68c-.1,1.02-.96,1.82-2.01,1.82-.79,0-1.49-.46-1.82-1.16.1,0,.2,0,.33-.03,1.95-.2,3.04-.56,3.27-.63,0,0,.23,0,.23,0ZM113.76,213.34c0,1.16-.92,2.05-2.05,2.05s-2.05-.89-2.05-2.05.92-2.05,2.05-2.05,2.05.89,2.05,2.05M113.76,218.29c0,.83-.46,1.52-1.22,1.85-.17-1.12-.69-2.41-1.82-3.4-.07-.03-.1-.1-.17-.13.33-.26.73-.36,1.16-.36,1.12,0,2.05.92,2.05,2.05M113.69,271.69c-.3.2-.63.4-.96.63-.17.1-.33.23-.53.33-.03-.46-.1-1.32-.2-2.41.76.13,1.42.69,1.65,1.42M113.76,267.36c0,1.02-.76,1.91-1.75,2.05-.1-1.19-.2-2.61-.36-4.09h.1c1.12,0,2.05.92,2.05,2.05M113.76,262.45c0,1.16-.92,2.05-2.05,2.05h-.13c-.13-1.35-.3-2.74-.43-4.03.2-.07.36-.07.56-.07,1.12,0,2.05.92,2.05,2.05M113.76,257.53c0,1.19-.92,2.08-2.05,2.08-.23,0-.46,0-.69-.1-.13-1.35-.3-2.61-.46-3.63h0c.36-.23.73-.36,1.16-.36,1.12,0,2.05.89,2.05,2.01M113.76,252.61c0,1.16-.92,2.05-2.05,2.05-.56,0-1.06-.23-1.49-.59h0c-.13-.66-.26-1.39-.5-2.15.33-.79,1.09-1.35,1.98-1.35,1.12,0,2.05.96,2.05,2.08M113.76,247.73c0,1.16-.92,2.05-2.05,2.05s-2.05-.92-2.05-2.05.92-2.05,2.05-2.05,2.05.92,2.05,2.05M113.76,242.81c0,1.12-.92,2.01-2.05,2.01s-2.05-.92-2.05-2.01.92-2.08,2.05-2.08,2.05.92,2.05,2.08M113.76,237.86c0,1.16-.92,2.05-2.05,2.05s-2.05-.89-2.05-2.05.92-2.05,2.05-2.05,2.05.92,2.05,2.05M109.5,290.67c-1.19,2.61-4.75,2.67-5.84,2.67,0-.07.07-.17.07-.26h0c.1-.46.13-.79.13-1.12,0-.43,0-.73.3-.99.1-.07.1-.23,0-.33s-.23-.1-.33,0c-.46.43-.46.89-.5,1.35,0,.26,0,.59-.1.96-.59.3-3.83.79-7.59.66-1.85-.07-2.9-.53-3.47-.96.26.07.63.07,1.06.07,2.57,0,4.62-2.51,5.05-3.1.56.07,1.25.1,1.82.1.63,0,1.16-.03,1.35-.23.1-.1.1-.23.03-.33s-.23-.1-.36-.07c-.2.17-1.52.13-2.84,0,.5-.5.89-1.16,1.39-1.78.69-1.02,1.42-2.08,2.34-2.64h0c.63-.1,1.52-.23,2.57-.53.83.26,1.45.92,1.58,1.16-.46,1.22-1.25,2.01-3.04,2.94l-.92.5h1.06c.2-.03,3.1-.17,5.87-1.19.13.03.46.17.69.56.3.56.17,1.45-.36,2.64M92.4,287.53c0,.26-.1,1.29-.92,2.08-.79.73-2.08,1.06-3.73.86-3.99-.4-6.04-5.41-6.63-7.03.43.1,1.16.13,2.31-.13,1.82-.43,3.27,0,3.53.1.76,1.25,1.85,2.34,3.17,3.17.73.46,1.49.76,2.28.96M85.8,274.39c-.69,2.05-.69,4.22-.1,6.24-.53.13-1.75.3-3.07-.07-1.29-.36-1.62-3.23-1.65-4.52,1.06-.63,2.08.13,2.15.17s.1.03.1.03c.13,0,.2,0,.26-.07.07-.13.03-.26-.07-.36-.46-.36-1.62-.89-2.71-.2-.26-.07-1.25-.56-1.45-3.86-.13-2.48-.69-4.49-1.12-5.78.17.17.33.3.53.43.46.33.92.4,1.55.46.76.13,1.72.26,3.17.99,2.67,1.32,3.07,4.42,3.1,4.88-.23.46-.43.96-.66,1.62M89.93,268.55s-.1.3-.17.4c-.07-.1-.1-.2-.1-.2l-.83-1.12.4,1.35s.17.63-.46,1.12c-.1.1-.2.17-.36.26-.46.36-.99.76-1.58,1.72-.23-1.16-.92-3.37-3.14-4.52,0-.56-.13-2.67-1.19-3.3-.36-.23-.89-.36-1.52-.5-1.29-.26-2.77-.56-3.27-2.01-.46-1.12-.23-2.34-.1-3.3.13-.96.26-1.65-.13-2.11-.23-.2-.5-.4-.76-.63-.73-.56-1.58-1.19-1.62-2.15,0-.53,0-.96.07-1.35.07-.66.1-1.25-.23-1.82-.17-.23-.23-.5-.23-.76.23.59.59,1.22.92,1.35.2.07.66.43,1.29,1.95.43,1.02,1.29,1.58,2.31,1.58.69,0,2.64.53,3.14,2.84-.13,2.15,1.02,4.26,1.09,4.36.03.13.2.17.33.1.1-.07.13-.23.07-.33,0,0-1.62-2.97-.79-5.28.13.53.36,1.12,1.02,1.29.1,0,.2.07.33.07,1.25.26,4.16.89,5.41,5.12.76,2.48.2,5.64.13,5.87M101.18,284.66c-.53.5-1.06,1.12-1.49,1.78-.63.2-5.81,1.95-9.31-.26-2.05-1.29-3.43-3.27-4.16-5.41h0l-.03-.03c-.63-1.98-.66-4.16.03-6.17.89-2.67,1.75-3.3,2.44-3.8.13-.07.26-.17.4-.3.26-.23.4-.5.53-.73.17.43.33,1.02.33,1.78,0,.13.1.23.26.23,0,0,.23-.1.23-.23,0-.83-.2-1.52-.36-2.01.2-.53.69-1.68,1.06-2.01.53-.46,1.25-2.28.36-4.22,1.19.59,3.7,2.41,3.89,6.77-1.45.1-2.01,1.09-2.01,1.12-.1.1-.03.26.1.3.1.07.26.03.33-.07,0-.07.46-.86,1.82-.89h.07c-.23.43-.53,1.16-.3,1.82.17.4.13,1.16-.26,1.82-.23.4-.69.89-1.62,1.06-.66.17-1.19,0-1.72-.17s-1.06-.33-1.65-.13c-.92.36-2.01,1.39-1.62,4.39.17,1.32,1.02,2.71,2.34,3.73,1.42,1.09,3.23,1.65,5.28,1.65.5,0,1.02-.03,1.58-.1l.73-.2c.43.1.83.1,1.19.1.53,0,.92-.03,1.22-.1l-.1.3h.46-.03ZM107.45,275.58c-.73-.1-1.49-.13-2.28.03-1.12.3-2.01.99-2.67,2.21-.73,1.52-.99,3.23-1.25,4.62-.07.53-.17.99-.26,1.35-.73.17-4.39.89-6.34-3.04.63.36,1.62.76,2.71.59.89-.13,1.68-.66,2.28-1.58.59-.86.96-1.78,1.29-2.57.89-2.08,1.45-3.43,4.79-2.87,0,0,1.45.3,1.72,1.25M110.16,277.2c-.73-.13-1.91-.17-2.9,1.12-1.25,1.62-1.19,3.27-1.06,4.62-2.11.99-4.03,1.22-4.79,1.25.13-.43.2-.96.3-1.65.23-1.35.53-3.07,1.19-4.49.56-1.02,1.35-1.68,2.34-1.91,2.24-.59,4.79.99,4.85,1.02v.07M113.2,283.73c-1.62,3.17-6.67,4.06-8.88,4.32,1.16-.73,1.95-1.52,2.38-2.81h0c.2-.59.13-1.25.07-2.01-.13-1.35-.36-3,.92-4.62,1.12-1.52,2.64-.92,2.84-.79.59.79,1.32,1.25,1.32,1.25.5.3,1.02.43,1.62.43h.13c.23.3,1.02,1.65-.4,4.22M115.8,286.18c-1.91,1.62-2.64,3.3-2.9,4.09-1.02-1.29-1.32-3.5-1.35-4.06.86-.63,1.62-1.35,2.05-2.28,1.32-2.41.86-3.86.5-4.52.73-.17,1.42-.59,1.91-1.29.92.69,1.52,1.85,1.62,3.27.13,1.82-.63,3.7-1.85,4.75M116.13,276.41c-.26,2.54-2.67,3.1-3.99,2.28,0,0-2.28-1.35-1.65-3.4.36-1.12,1.49-1.85,2.54-2.54.83-.53,1.62-1.06,2.05-1.72.36,1.02,1.22,3.47,1.06,5.41M108.77,271.13c-.4-.5-1.02-1.06-1.72-.96,0,0-.63,0-.92.43-.26.33-.3.69-.13,1.19-.26.43-.69.66-1.22.83-.92.17-1.58.1-2.05-.26-.76-.56-.96-1.68-1.12-2.67-.1-.53-.17-1.02-.33-1.39h0c.33.07.76.23.92.63.2.33.5.56.92.63.53.03,1.19-.17,1.39-.43.07-.1.07-.26-.03-.33s-.26-.07-.33.07c-.07.1-.53.3-.96.23-.26-.03-.43-.13-.56-.36-.26-.56-.86-.79-1.32-.89-.26-.26-1.22-1.29-1.55-2.21-.26-.66-.36-1.39-.46-1.85.5.43,1.32,1.02,2.15,1.12.66.1,1.25-.03,1.78-.2.79-.17,1.58-.36,2.64,0,2.11.73,2.54,2.77,2.54,2.84h0c.13,1.35.26,2.61.33,3.63M107.82,262.25c-.79-.89-2.31-2.18-3.63-1.45-.83.43-.83,1.22-.63,1.75-.73.1-2.74.23-3.63-1.19-.66-1.06-.83-1.91-.99-2.64-.07-.33-.1-.59-.2-.83.33.1.76.26,1.12.56.3.3.73.2,1.22.1.43-.1.89-.17,1.25.03.69.43.63.92.63.96,0,.13.1.23.2.26.13.03.26-.07.26-.23,0,0,.13-.86-.86-1.42-.53-.33-1.12-.2-1.62-.1-.36.07-.66.13-.83,0-.4-.33-.89-.53-1.25-.63h0s-1.09-.99-1.45-1.85c-.23-.5-.33-1.35-.43-1.95.73.66,2.28,1.62,4.49.96,2.9-.83,4.72-.26,5.38,1.62.4,2.18.69,4.19.96,6.07M106.1,252.25c-.69-.69-1.82-1.62-2.97-1.45-.63.1-1.02.33-1.22.73-.2.36-.13.76-.07,1.02-.76.17-3.07.63-4.46-1.02-.56-.66-.83-1.75-1.06-2.67-.2-.79-.33-1.49-.66-1.95.33,0,.73.1,1.09.4.33.23.86.17,1.45.1,1.19-.13,1.98-.17,2.15.99,0,.13.13.23.26.23.17,0,.23-.17.23-.26-.3-1.68-1.75-1.52-2.67-1.42-.46.07-.92.13-1.12,0-.3-.2-.63-.33-.92-.4-.03,0-.03-.03-.07-.07,0,0-1.29-.66-1.95-2.38-.43-1.19-.66-2.44-.76-3.14.92.73,3.1,2.15,5.94,1.52,0,0,.1-.03.2-.07.73-.23,2.94-.92,4.09.59.86,2.84,1.72,5.94,2.48,9.34M102.6,239.58c-.73-.69-1.98-1.45-3.43-.69-.73.4-.83,1.16-.79,1.68h0c-.73,0-2.74-.17-3.76-1.72-.5-.73-.83-1.39-1.09-1.95-.36-.69-.63-1.25-1.02-1.62.46,0,1.02.1,1.25.33.33.33.86.2,1.45.07.99-.17,1.75-.26,2.11.4.07.1.23.13.36.1.13-.07.17-.2.07-.3-.59-1.02-1.75-.79-2.61-.63-.43.1-.92.23-1.06.07-.4-.36-1.12-.46-1.68-.5-.26-.33-1.12-1.42-1.39-2.51-.2-.89-.3-2.08-.4-2.84.63.76,1.75,1.91,2.9,2.21.33.07.96,0,1.72,0,1.95-.17,4.88-.33,5.64,1.29.4,2.05,1.02,4.26,1.68,6.63M112.44,234.89c-.26.07-.5.13-.73.13-1.16,0-2.05-.92-2.05-2.05,0-.33.1-.66.26-.96.03.2.1.36.17.56.33.86,1.49,1.75,2.38,2.31M114.15,235.48c-.2-.2-.43-.4-.69-.56-.59-.33-2.54-1.49-2.94-2.54-.33-.79-.33-1.65-.33-1.98.43-.2.86-.3,1.32-.3.63,0,1.12.2,1.32.3v.69c.07.86.36,1.45.63,1.98.17.33.33.63.4.96.1.46.2.96.3,1.42M113.39,228.88c.07.5-.2.92-.36,1.12-.3-.13-.79-.36-1.52-.36-.53,0-1.02.1-1.55.33-.17-.1-.5-.33-.5-.56,0-.43,0-1.29,1.75-1.29,1.32,0,2.01.23,2.15.76M104.35,226.77c-1.32,1.78-.5,5.48-.07,6.93.07.3.23.83.46,1.55,1.29,4.32,4.62,15.84,5.35,20.66.36,2.41.73,6.01,1.06,9.24.33,3.8.56,7.16.63,7.85-.79.59-1.45,1.22-1.75,2.15-.13.46-.13.92-.1,1.35-.1-.07-.3-.13-.46-.23,0-1.16-.13-8.75-2.15-20.17-.89-5.02-2.08-9.41-3.23-13.3v-.13h0c-.13-.46-.3-.99-.43-1.49-1.42-4.79-2.61-8.88-2.61-12.28s1.82-5.35,4.69-5.35c3.33,0,4.52,2.31,4.65,2.54.07.3.17.53.17.59.07.13.2.2.3.13.13-.03.2-.17.17-.3-.2-.5-.53-1.85-.07-2.38.23-.23.53-.5.79-.73.26-.2.5-.4.73-.66l.07-.03c.1-.1.2-.17.26-.26.17.69.46,1.85.99,2.87.56,1.06-.13,2.28-.43,2.71-.4-.3-1.09-.43-2.05-.43-.73,0-1.19.13-1.52.36-.26-.59-1.12-2.05-3.23-2.18-.92,0-1.65.3-2.15.96M108.54,223.77c-.69-.43-1.65-.69-2.9-.69-.2,0-.33,0-.53.07,0-.66-.17-2.31-1.65-2.97-.92-.4-2.11-.59-3-.69-.26-.07-.5-.07-.76-.13-.86-1.02-1.06-3.14-1.06-4.42.96,1.39,2.97,2.15,4.95,2.87,1.52.53,2.9,1.06,3.73,1.78,1.32,1.19,1.29,3.37,1.19,4.19M112.07,222.51c-.2.2-.43.4-.66.59-.33.26-.63.5-.86.76-.3.33-.36.76-.36,1.22-.26-.33-.63-.69-1.16-1.02.1-.69.36-3.4-1.32-4.85-.92-.79-2.34-1.29-3.89-1.85-2.31-.86-4.69-1.72-5.12-3.6l-.33-1.62-.13,1.68s-.23,3.5.79,5.35c-.1-.03-.17-.1-.23-.13l-.33-.36-.07.5s0,.1-.03.17c-.86-.33-3.3-1.62-2.38-5.51.03-.23.2-.59.33-.99.43-1.06,1.02-2.64.23-4.19.5.07,1.35.3,2.01,1.22h0s.23.36.33.59c.59,1.12.66,1.78.73,2.31.07.46.07.89.46,1.42.26.35.26.36,0,.03.03.3.07.5.1.53.03.1.2.2.3.13.17-.03.2-.17.17-.3,0,0-.33-1.09.07-2.15.26.33.79.79,1.55,1.09.2.07.43.13.69.2,1.91.5,3.73,1.16,3.33,3.3-.03.13.03.26.2.3h.03s.2-.07.23-.2c.1-.56.07-.99-.03-1.39,0-.59.07-.99.13-1.19.17.2.5.4.86.63.56.33,1.39.89,2.64,1.95,2.11,1.82,1.75,4.92,1.68,5.41M104.68,223.21c-1.42.23-2.54.99-3.3,2.18-.69-.63-1.95-.92-2.74-.63-.53.2-.79.63-.79,1.19,0,.53.2.89.53,1.09.36.23.79.13,1.06.07.07.5.13,1.65-.89,2.34-1.35.89-4.26.23-5.87-1.35-.92-.89-1.72-1.68-2.24-2.18.43.07.92.13,1.25,0,1.02-.4,2.48-.66,2.67-.4.1.1.23.13.33.03.1-.07.13-.2.03-.33-.59-.79-3.2.23-3.2.23-.26.1-.69.07-1.06,0-.33-.2-3-2.05-3.56-6.34,2.57,3,5.74,1.82,7.62,1.06.33-.1.63-.23.92-.3,1.25-.4,2.57.26,2.81.36,0,.69.07,1.42.5,1.58.13.03.23,0,.33-.13.03-.13,0-.3-.17-.33-.23-.1-.26-.92-.17-1.72.36.17.92.23,1.62.36.89.13,2.01.3,2.87.66,1.35.59,1.39,2.08,1.39,2.57M94.51,219.64h-.1c-2.18.83-5.08,1.91-7.59-1.52l-.43-.59c-.43-.83-.89-2.11-.96-3.47-.13-2.38-.3-3.07-1.32-3.73-.69-.53-1.29-1.29-1.72-2.18.69.33,1.85.86,2.71.86h.07c.23,0,.46,0,.66.07.07.03.1.07.17.07h.1c1.45.26,2.64,1.22,3.3,2.77.1.33,0,.66,0,.99-.07.76-.13,1.65.5,3.1.83,1.85,2.51,2.38,3.53,2.71.2,0,.36.07.53.13.46.2.53.63.53.86M97.32,219.31c-.59-.17-1.29-.23-2.01,0-.07.03-.23.07-.33.13-.03-.4-.23-.89-.83-1.12-.13-.03-.33-.13-.56-.2-.99-.3-2.51-.76-3.2-2.41-.59-1.35-.53-2.11-.46-2.87.03-.2.03-.46.03-.69.43.26,1.06.73,1.32,1.39.03.1.17.13.3.1.13-.07.2-.17.13-.33-.3-.73-1.06-1.29-1.52-1.58-.07-.33-.36-1.62.13-2.64.1-.13.17-.3.26-.43.56-1.06,1.12-2.15.86-3.8.92.53,3.04,1.95,3.07,4.42,0,.76-.33,1.45-.66,2.05-.56,1.09-1.16,2.15.07,3.56.43.43.92.53,1.25.53h.13c0,2.11,1.12,3.27,2.01,3.86M91.02,205.52c0,1.19-.4,2.05-.89,2.94-.1.17-.17.3-.26.46-.36.69-.36,1.49-.33,2.08-.76-1.32-1.88-2.11-3.3-2.41,0-.5-.1-1.52-.76-2.05-.2-.17-.56-.26-.99-.4-1.29-.4-3.04-.96-3.17-3.33-.07-.92-.07-1.62-.07-2.15,0-1.45,0-1.95-.86-2.94-1.02-1.16-1.12-1.98-1.29-3.47-.07-.43-.13-.79-.23-1.09.53.43,1.12,1.09,1.32,1.85.43,1.35,1.12,1.55,2.01,1.85.3.07.56.17.89.26.63.3,1.06.73,1.29,1.32.2.59.13,1.25-.17,1.82-.36.69-.17,1.25.03,1.62.23.4.59.69.89.79.13.73.3,1.32.33,1.39.03.1.2.2.3.13.13,0,.2-.17.17-.3-.2-.66-.59-2.38-.33-3.4.23.5.73,1.09,1.55,1.32,1.42.36,3.23,1.32,3.76,3.66v.03M99.14,195.32c0,.86-.17,1.65-.46,2.28,0,0-.07.1-.07.17-.99,2.01-2.94,2.77-3.27,2.94-.33-.07-1.06-.23-1.39-.69-.13-.23-.17-.46-.07-.76.46-.33,2.87-2.08,2.87-3.8,0-2.01-1.16-3.04-2.34-3.73.03-.26.13-.92.76-1.16h0c.73,0,3.89.83,3.89,4.79M96.3,195.42c0,1.39-2.08,2.97-2.61,3.37-.4-.26-1.68-1.22-1.72-3.2-.03-2.01,1.75-3.2,2.21-3.5,1.49.89,2.08,1.88,2.08,3.33M101.48,190.43c-1.39.13-2.57,1.02-2.97,1.39-.69-.89-1.55-1.39-2.28-1.58,0-.53,0-1.52.46-1.91.66-.56,2.05-1.91,1.72-3.47.96.69,2.87,2.44,3.07,5.58M106.1,194.36c-.66.4-1.32,1.29-1.98,2.18-.83,1.09-1.68,2.21-2.38,2.21-1.25,0-2.24-.76-2.57-1.06.3-.66.5-1.45.5-2.38,0-1.35-.36-2.38-.86-3.14.36-.3,1.62-1.29,2.97-1.29.73,0,1.58.92,2.41,1.78.63.73,1.29,1.39,1.95,1.72M97.39,205.68c.07-.5-.07-1.19-.73-1.85-.79-.76-.99-2.28-1.02-2.77.56-.23,2.31-1.09,3.3-2.94.4.33,1.19.89,2.24,1.06.46,3.17-2.57,5.61-3.8,6.47M118.81,196.54c-1.98.26-3.8.59-5.51.86l2.77-3.43s2.74,2.57,2.74,2.57ZM110.06,198.06c-3.73.79-6.57,1.62-8.32,2.15,0-.33,0-.66-.07-.96h.07c.92,0,1.82-1.19,2.77-2.44.59-.76,1.19-1.58,1.75-1.95l3.8,3.2ZM109.73,187.36l-4.75,5.45c-.2-.13-.33-.33-.5-.5-.86-.92-1.68-1.75-2.54-1.91,0-.36-.07-.69-.13-1.06,1.42-.43,4.13-1.22,7.92-2.01M115.74,193.63l-3.14,3.89h0c-.66.13-1.32.23-1.91.36l-3.89-3.3.1-.03.07-.46c-.53,0-1.06-.4-1.58-.96l5.18-5.94,3.86,3.1-.26.3s-.43.36-.63.33l-.73-.07,2.97,2.81-.03-.03ZM118.64,185.78l-3.93,4.16-3.63-2.87c2.21-.43,4.75-.89,7.56-1.29M124.71,191.88l-3.89,4.39h0c-.5.07-.92.13-1.42.2l-5.45-5.15c.26-.13.5-.36.53-.4l4.92-5.18s.2-.03.3-.07l4.19,3.7v.07c-.17.1-.5.36-.69.33l-.69-.13,2.18,2.28.03-.03ZM128.31,195.58c-2.34.17-4.62.36-6.77.59l3.47-3.99,3.27,3.37.03.03ZM128.64,184.79l-4.39,4.22-3.89-3.47c2.54-.3,5.31-.59,8.28-.79M133.59,191.98l-3.33,3.5c-.46,0-.89.03-1.32.07l-5.25-5.45c.26-.13.5-.3.53-.36l5.15-5.02h.23l2.84,2.64-.89.89s-.46.36-.63.33l-.73-.13s3.4,3.53,3.4,3.53ZM136.79,195.28c-2.01,0-3.93.07-5.81.13l2.94-3.07,2.87,2.94ZM135.41,184.52l-2.61,2.54-2.44-2.38c1.65-.1,3.33-.17,5.08-.2M143.1,188.98l-2.74,2.84h0l-3.14,3.23-3.14-3.23h0l-2.74-2.84c.26-.13.5-.33.53-.36l5.35-5.18,5.35,5.18s.26.23.53.36M143.49,195.45c-1.88-.07-3.83-.13-5.84-.13l2.87-2.94,2.97,3.07ZM144.09,184.72l-2.44,2.38-2.64-2.54c1.75,0,3.47.1,5.08.2M150.79,190.1l-5.28,5.45c-.43,0-.86-.07-1.29-.07l-3.37-3.5,3.4-3.53-.69.13c-.2,0-.53-.2-.66-.33l-.89-.89,2.74-2.67h.2l5.28,5.02s.26.23.53.36M152.93,196.21c-2.15-.23-4.39-.46-6.8-.59l3.27-3.37,3.53,3.99v-.03ZM154.09,185.55l-3.93,3.47-4.39-4.26c2.97.2,5.78.46,8.32.76M160.49,191.32l-2.18,2.05h-.07c-.07,0-.07.03-.07.07l-3.14,3c-.5-.07-.96-.13-1.42-.2h0l-3.86-4.39,2.21-2.28-.76.13c-.17,0-.5-.2-.63-.36h-.07l4.22-3.73h.33l4.92,5.25s.23.26.53.4M161.15,197.43c-1.72-.33-3.53-.66-5.48-.89l2.74-2.57,2.77,3.47h-.03ZM163.36,187.07l-3.63,2.87-3.96-4.16c2.81.36,5.35.83,7.59,1.29M167.55,194.59s.1,0,.2.03l-3.93,3.3c-.63-.13-1.29-.23-1.95-.36h0l-3.14-3.93,2.94-2.77-.73.07c-.2.03-.5-.2-.59-.33l-.3-.3,3.89-3.1,5.15,5.94c-.53.56-1.06.96-1.55.96v.5ZM172.77,199.24c-.07.3-.07.66-.07.96-1.78-.56-4.59-1.39-8.32-2.15l3.8-3.2c.53.4,1.12,1.19,1.72,1.91.96,1.25,1.85,2.44,2.81,2.44h.07v.03ZM172.6,189.38c-.07.36-.1.69-.13,1.06-.83.13-1.68.99-2.54,1.91-.2.17-.33.33-.5.5l-4.75-5.48c3.56.76,6.24,1.52,7.92,2.01M178.21,190.23c-.69.2-1.62.69-2.24,1.58-.4-.36-1.62-1.25-3-1.39.2-3.14,2.11-4.88,3.07-5.58-.33,1.55,1.02,2.9,1.72,3.47.43.4.5,1.39.43,1.91M174.81,195.32c0,.96.2,1.78.53,2.48-.33.26-1.32.96-2.61.96-.73,0-1.58-1.12-2.41-2.21-.66-.89-1.32-1.75-1.98-2.18.66-.33,1.29-.99,1.95-1.72.86-.86,1.72-1.78,2.44-1.78,1.32,0,2.61.99,2.94,1.29-.5.76-.83,1.82-.83,3.14M178.77,201.06c0,.46-.23,2.01-1.06,2.77-.66.66-.76,1.35-.69,1.85-1.22-.86-4.26-3.3-3.8-6.47,1.12-.17,1.91-.69,2.31-.99.96,1.78,2.71,2.61,3.23,2.84M180.42,199.97c-.33.5-1.12.66-1.35.69-.46-.2-3.8-1.52-3.8-5.35s3.2-4.82,3.8-4.82h.1c.66.26.76.89.76,1.19-1.16.69-2.34,1.72-2.34,3.73,0,1.72,2.41,3.5,2.87,3.8.07.3.03.53-.1.76M182.44,195.58c0,1.98-1.29,2.97-1.72,3.2-.53-.4-2.61-1.98-2.61-3.37s.63-2.41,2.11-3.33c.46.26,2.24,1.49,2.21,3.5M118.84,207.03h-1.25l1.19.46s.2.07.53.13c-.4.1-.89.13-1.49.1-.92.03-1.58,0-1.98-.1.53-.66.73-2.34.59-5.05-.07-1.42.56-2.11.76-2.31,1.02-.13,2.08-.3,3.17-.46-.36.46-.79,1.25-.73,2.34.2,3.47-.2,4.49-.5,4.75-.1.07-.17.13-.26.13M123.29,201.85c.13,2.54-.07,4.26-.5,4.75-.1.07-.17.13-.17.13h-1.35l1.19.46s.13.03.33.1c-.4.03-.79.07-1.29.03-.89,0-1.55-.03-1.98-.1.53-.66.73-2.31.59-5.05-.07-1.42.76-2.18.99-2.38.96-.13,1.88-.23,2.9-.33-.36.46-.76,1.29-.69,2.41M126.96,201.39c.17,3.63-.26,4.65-.53,4.92-.07.1-.2.1-.2.1h-1.29l1.12.46s.07,0,.2.07h-1.12c-.89,0-1.58-.03-1.98-.13.56-.63.76-2.34.59-5.02-.07-1.42.69-2.24.92-2.48.92-.1,1.91-.17,2.9-.23-.33.43-.73,1.16-.66,2.28M130.65,201.19c.17,3.47-.2,4.59-.53,4.95-.1.1-.2.13-.2.13h-1.25l1.12.46h-.92c-.92,0-1.58,0-2.01-.1.56-.66.76-2.44.59-5.25-.07-1.52.73-2.15.92-2.31.96-.03,1.95-.13,2.97-.17-.33.43-.73,1.16-.66,2.28M134.28,201.09c.17,2.64-.07,4.46-.5,4.92-.1.13-.2.13-.2.13l-.1.4h-.99c-.92,0-1.58-.07-2.01-.13.53-.66.73-2.38.63-5.21-.1-1.52.73-2.15.89-2.31.99-.03,1.95-.07,2.97-.07-.36.43-.76,1.12-.69,2.28M140.23,206.24c-.69.1-1.85.2-2.97.17-1.16,0-2.31-.1-3-.17.53-.73.73-2.44.56-5.21-.07-1.45.66-2.11.89-2.28h3.07c.23.17.96.83.92,2.28-.17,2.74,0,4.49.53,5.18M172.6,210.76c-.69.07-1.82,0-3.04-.36.53,0,.83-.07.86-.07l1.82-.4c.1.33.2.63.36.83M175.44,209.64c-.1.2-.23.36-.36.59-.23.46-.4.86-.5,1.19h-.26c-.46,0-.86-.07-1.32-.17.2-.03.33-.07.33-.07v-.5s-.17,0-.26-.1c-.59-.63-.66-2.81-.5-4.75.1-1.16-.13-1.82-.4-2.28,1.49.46,2.28.73,2.28.73.07,0,1.06.59.99,2.21-.07,1.25-.03,2.34,0,3.14M172.24,209.87h-1.88s-.13,0-.23-.1c-.56-.63-.73-3.1-.59-5.18.07-.89-.2-1.52-.5-1.91.86.23,1.58.43,2.24.59.17.1.99.56.83,2.54-.07.53-.2,2.64.17,4.06M166.83,209.05l.23-.36h-.43s-.17,0-.23-.1c-.33-.33-.69-1.45-.5-4.75.03-.96-.23-1.62-.56-2.05,1.06.23,2.01.46,2.9.69.26.17.89.79.83,2.11,0,.69-.13,4.19.63,5.38-.73,0-2.05-.03-3.7-.59.56-.07.79-.2.86-.33M166,208.88c-.33.03-.86.03-1.72-.03-.79-.1-1.39-.17-1.91-.26.46-.1.66-.17.66-.17l1.16-.5h-1.25s-.17-.03-.23-.13c-.46-.5-.66-2.21-.53-4.75.1-.96-.2-1.62-.5-2.05.96.2,1.91.4,2.74.56.1.07,1.02.66.96,2.21-.17,2.81.07,4.49.63,5.08M162.27,208.09c-.4.1-1.09.13-2.01.13-.63,0-1.12,0-1.62-.1.43-.07.66-.17.66-.17l1.22-.46h-1.32s-.17-.07-.23-.13c-.46-.5-.63-2.21-.5-4.72.03-1.06-.23-1.78-.53-2.24,1.06.17,2.05.33,3,.5.17.13.83.76.73,2.15-.13,2.67.1,4.39.59,5.05M158.61,207.63c-.4.1-1.06.13-1.98.1-.56.03-1.06,0-1.49-.1.33-.03.53-.13.56-.13l1.16-.43h-1.25s-.17-.07-.23-.13c-.26-.26-.66-1.29-.5-4.75.07-1.09-.36-1.88-.73-2.34,1.09.13,2.15.3,3.2.46.17.2.83.89.73,2.31-.13,2.71.07,4.39.59,5.05M154.94,207.2c-.43.07-1.09.13-2.01.1h-1.29c.23-.07.33-.1.33-.1l1.19-.46h-1.25s-.2-.07-.26-.13c-.46-.5-.63-2.21-.5-4.75.03-1.12-.36-1.95-.73-2.41.99.1,1.95.2,2.9.33.23.17,1.09.96.99,2.38-.13,2.74.03,4.42.63,5.05M151.28,206.87c-.43.07-1.09.13-2.01.13h-1.09c.1,0,.17-.07.17-.07l1.12-.46h-1.22s-.17,0-.26-.1c-.26-.3-.69-1.32-.5-4.92.03-1.12-.33-1.85-.66-2.28.99.07,1.95.13,2.9.23.23.2,1.02,1.06.96,2.48-.17,2.71.03,4.39.59,5.02M147.62,206.6c-.4.07-1.06.13-2.01.1h-.96l1.12-.46h-1.22s-.13,0-.26-.13c-.3-.33-.69-1.49-.53-4.95.1-1.16-.33-1.88-.69-2.28,1.02.03,2.01.13,2.97.17.2.1.99.76.92,2.28-.13,2.81.03,4.59.59,5.25M143.92,206.41c-.43.07-1.09.13-2.01.13h-.99v-.4s-.17,0-.3-.13c-.43-.5-.66-2.28-.53-4.92.07-1.16-.33-1.85-.66-2.28.99,0,1.98,0,2.94.07.17.17.99.79.92,2.31-.13,2.84.07,4.59.59,5.21M115.18,207.46h-1.29l1.19.46s.23.1.66.17c-.43.07-.99.13-1.58.1-.92,0-1.58,0-2.01-.13.56-.66.76-2.34.59-5.05-.07-1.42.56-2.01.76-2.15.96-.2,1.91-.36,2.94-.53-.26.46-.56,1.16-.53,2.24.13,2.51-.03,4.26-.53,4.72-.07.07-.17.13-.23.13M111.48,207.92h-1.22l1.16.46s.23.1.66.2c-.5.1-1.16.2-1.91.26-.89.07-1.42.07-1.75.03.56-.59.79-2.28.66-5.08-.1-1.55.83-2.15.92-2.21.86-.2,1.75-.4,2.74-.56-.26.4-.53,1.06-.5,2.05.17,2.51-.03,4.26-.5,4.75-.1.07-.2.13-.26.13M107.82,208.68h-.43l.23.36s.26.23.83.33c-1.62.53-2.97.59-3.7.59.83-1.19.69-4.65.63-5.38-.07-1.32.56-1.95.83-2.11.89-.23,1.85-.46,2.9-.69-.3.43-.59,1.09-.53,2.05.17,3.3-.17,4.39-.53,4.75-.07.07-.13.1-.13.1M104.91,204.59c.1,2.05-.03,4.52-.59,5.18-.1.1-.2.1-.2.1h-1.91c.33-1.42.23-3.56.17-4.06-.17-1.88.59-2.41.83-2.54.63-.17,1.39-.4,2.21-.59-.26.43-.53,1.02-.46,1.91M101.12,210.7v.5s.1,0,.3.03c-.46.13-.86.2-1.35.2h-.23c-.1-.33-.26-.73-.5-1.19-.1-.23-.23-.4-.36-.59.07-.83.1-1.88,0-3.14-.07-1.58.89-2.18.89-2.18.07,0,.86-.3,2.38-.76-.26.46-.5,1.16-.4,2.28.17,1.95.07,4.13-.5,4.72-.1.13-.2.13-.2.13M174.19,203.67c-.53-.17-1.45-.46-2.74-.83h-.1c-.83-.26-1.78-.53-2.9-.76-.07-.07-.1-.07-.1-.07h-.17c-2.81-.69-6.47-1.49-10.79-2.15h0c-2.34-.36-4.82-.66-7.52-.89h0c-3.4-.33-7.1-.56-11.06-.59h-3.1c-3.93.03-7.62.26-11.02.59h0c-2.67.26-5.18.56-7.52.89h0c-4.36.66-7.99,1.45-10.79,2.15h-.17s-.03,0-.1.07c-1.12.3-2.08.53-2.94.76h-.07c-1.32.36-2.21.69-2.74.86.66-.86,1.19-1.85,1.39-2.97,4.75-1.49,17.62-4.95,35.58-4.95h0c2.38,0,4.69.07,6.86.2,7.19.36,13.33,1.22,18.19,2.18s8.45,1.95,10.5,2.57c.2,1.12.73,2.11,1.39,2.94M109.17,213.34c0,.4.13.79.26,1.09h-.13c-.73-.13-1.55-.23-2.05-.3-.07-.07-.13-.13-.13-.2l-.13-.23-.2.13s-.13.1-.2.23c-.59-.1-1.35-.23-1.88-.36h0c-.56-.2-1.09-.33-1.52-.43-.26-.07-.5-.13-.63-.2-.99-.36-1.52-1.19-1.58-1.25.46-.07.99-.2,1.65-.56.99,0,2.38-.2,3.8-.92.86-.1,1.88-.36,3.04-.83.33.69.96,1.19,1.68,1.39-1.09.26-1.95,1.25-1.95,2.48M173.53,211.82s-.56.89-1.58,1.25c-.17.07-.36.13-.66.2-.46.1-.99.26-1.55.5h0c-.43.1-.99.17-1.45.26l-.4.07s-.13-.2-.17-.23l-.23-.13-.13.23s-.07.17-.17.2c-.5.07-1.39.2-2.08.3h-.13c.17-.3.26-.69.26-1.09,0-1.19-.83-2.21-1.95-2.48.76-.2,1.39-.69,1.72-1.42,1.16.5,2.18.76,3.07.86,1.39.69,2.71.89,3.73.92h0c.69.36,1.25.5,1.75.56M173.36,187.23c-.3.53-.5,1.09-.66,1.68-3.07-.92-9.27-2.61-17.95-3.76h-.13c-2.9-.36-6.04-.66-9.44-.86h-.56c-1.95-.13-3.99-.17-6.11-.2l-1.12-1.09-.1-.07c-.13,0-.2,0-.23.07l-1.12,1.09c-2.11,0-4.13.1-6.11.23h-.59c-3.37.2-6.5.53-9.37.89-.1-.03-.2-.03-.26.03-.1,0-.2.03-.33.03h0c-8.81,1.19-15.05,2.9-17.53,3.66-.17-.63-.43-1.19-.66-1.68,4.13-1.29,17.99-5.12,36.17-5.12h0c18.19,0,32.01,3.83,36.14,5.12M147.78,182.05c-.76-.07-1.55-.13-2.34-.17.3-.5.76-1.52.46-2.97-.36-1.78-3.07-3.56-5.51-5.18-1.39-.92-2.94-1.95-2.94-2.38,0-.13-.1-.26-.23-.26h0s-.26.1-.26.26c0,.43-1.55,1.45-2.94,2.38-2.44,1.62-5.18,3.4-5.51,5.18-.33,1.49.17,2.51.46,2.97-.83.07-1.62.13-2.41.17-.2-.17-1.85-1.55-1.16-4.36.56-2.18,3.89-4.49,6.83-6.47,2.28-1.58,4.32-2.94,4.98-4.19.66,1.25,2.71,2.64,4.95,4.19,2.94,2.01,6.27,4.29,6.83,6.47.73,2.77-.99,4.19-1.22,4.36M144.88,181.85c-.86-.07-1.75-.1-2.64-.13.26-.46.59-1.35.36-2.38-.23-1.19-1.65-2.15-2.97-3.07-1.02-.73-2.08-1.45-2.18-2.08,0,0-.03-.07-.03-.1h0l-.07-.1h-.17s-.1.03-.13.1h0s-.07.07-.07.1c-.1.63-1.16,1.35-2.15,2.08-1.35.92-2.71,1.88-2.97,3.07-.26,1.02.1,1.91.33,2.38-.89,0-1.78.07-2.64.13-.07-.1-.92-1.09-.56-2.87.3-1.55,3.1-3.4,5.31-4.88,1.52-.99,2.51-1.62,2.94-2.18.43.56,1.39,1.19,2.9,2.18,2.24,1.45,5.02,3.3,5.31,4.88.33,1.75-.5,2.77-.56,2.87M141.68,181.69c-1.42-.03-2.94-.07-4.46-.07h0c-1.52,0-3.04.03-4.52.07-.1-.23-.63-1.16-.4-2.24.2-.96,1.55-1.95,2.77-2.77.92-.66,1.75-1.22,2.15-1.85.4.63,1.22,1.19,2.11,1.85,1.19.86,2.57,1.82,2.77,2.77.23,1.09-.3,2.05-.46,2.24M101.54,186.57c-.26.1-.53.13-.73.2-.43-.73-.96-1.29-1.42-1.72.07-.13.3-.56.96-1.12,1.02.83,1.19,1.95,1.16,2.64M105.6,185.45c-1.42.36-2.61.69-3.56.96,0-.76-.26-1.95-1.32-2.81.36-.4,1.29-1.32,2.11-1.85.5-.33.79-.63.92-.89.59.79,1.95,2.67,1.85,4.59M174.98,185.09c-.46.43-.96.99-1.39,1.68-.2-.07-.43-.1-.69-.2-.07-.66.1-1.82,1.12-2.64.66.56.89.99.96,1.16M173.69,183.63c-1.06.86-1.32,2.05-1.29,2.81-.96-.3-2.15-.63-3.56-.96-.1-1.91,1.22-3.83,1.85-4.59.13.26.4.56.92.89.79.53,1.75,1.45,2.08,1.85M170.42,180.4c-.56.66-2.15,2.74-2.08,4.95-1.29-.33-2.74-.66-4.36-.99,0-.53.1-3.47,1.12-4.69.1.3.3.63.73.92.92.59,1.35,1.19,1.35,1.82,0,.17.1.26.23.26s.23-.07.26-.2c.07-.83-.43-1.62-1.58-2.31-.26-.17-.43-.43-.46-.66.43-1.32,1.72-2.24,2.34-2.61.17,1.68,1.88,3.07,2.51,3.5M166.07,177.82c-.26.3-.5.63-.69.99l-.23.2c-1.39,1.06-1.58,4.42-1.58,5.25-1.29-.26-2.71-.53-4.19-.79-.5-3.96,2.38-7.85,3.27-8.91h0c.23.3.66.53,1.32.92l.56.33c.99.63,1.45,1.68,1.58,1.98M158.87,183.4c-1.25-.23-2.64-.43-4.03-.59-.1-.63-.69-4.32,1.12-6.47.13.26.36.56.66.89.46.43.89.99.83,1.65,0,.13.07.26.2.3.17,0,.26-.07.3-.2.13-.89-.43-1.58-.92-2.08-.43-.4-.59-.86-.66-1.02.66-3.1,2.77-4.79,3.7-5.38-.07.56-.03,1.52.53,2.01.56.53,1.32,1.42,1.65,1.82-.99,1.19-3.73,5.02-3.27,9.04M155.77,175.81c-2.08,2.15-1.62,5.87-1.45,6.9-1.88-.26-3.83-.46-5.91-.63.59-.66,1.65-2.15,1.02-4.52-.26-1.02-1.02-2.01-2.08-3-.1-.96.66-2.31,1.02-2.84.26-.3.43-.69.56-.89,1.16.76,1.88,2.21,1.88,2.21.07.13.2.17.3.1.13-.07.17-.2.13-.33,0-.07-.69-1.42-1.85-2.31h0s-.13-2.01,1.75-2.81c2.15-.86,3.14-2.67,3.3-3.7.07-.36.33-.76.56-1.06.07.53.36.99.66,1.49.23.36.46.76.56,1.16.2.69.03,1.88-.1,2.61l-.13-.5-.23.66c-.23.66-.96,1.49-1.75,2.31-1.19,1.32-2.57,2.77-2.71,4.39-.26,2.64,1.58,4.95,1.65,5.05.07.07.13.1.13.1,0,0,.13-.03.2-.07.1-.07.13-.23.07-.33-.03,0-1.82-2.28-1.58-4.72.13-1.45,1.45-2.87,2.57-4.13.63-.69,1.25-1.35,1.62-1.98.26.66.92,1.72,2.01,2.44-.89.96-1.78,2.34-2.21,4.26M149.04,169.67c-.07.23-.07.43-.07.56l-.23-.1-.1.26s-.23.59-.59,1.06c-.3.4-.99,1.58-1.12,2.67-1.32-1.19-2.94-2.31-4.49-3.33-.26-.2-.53-.36-.79-.56.3-2.18,3.07-4.52,4.03-5.28.1.46.4,1.19,1.19,1.88.43.4.83.89,1.19,1.35h0c.59.76.99,1.45.99,1.45M132.77,170.23c-.26.2-.53.4-.79.56-1.52,1.02-3.17,2.15-4.49,3.33-.1-1.09-.83-2.28-1.12-2.67-.33-.46-.59-1.06-.59-1.06l-.13-.26-.17.1s-.03-.36-.1-.56h0s.4-.69.96-1.45h0c.33-.46.76-.96,1.16-1.35.79-.69,1.09-1.42,1.22-1.88.96.76,3.73,3.1,4.03,5.28M124.98,177.56c-.63,2.38.36,3.86.96,4.52-2.05.17-3.99.36-5.84.63.17-1.02.63-4.75-1.45-6.9-.43-1.91-1.32-3.3-2.18-4.26,1.06-.73,1.68-1.75,2.01-2.41.36.63.96,1.29,1.62,1.98,1.16,1.25,2.41,2.67,2.57,4.13.26,2.44-1.55,4.69-1.55,4.72-.1.07-.1.23.03.3l.1.07c.1,0,.2-.03.23-.07.07-.13,1.95-2.44,1.68-5.05-.17-1.62-1.55-3.07-2.71-4.39-.79-.83-1.52-1.65-1.75-2.31l-.23-.66-.13.4c-.17-.73-.33-1.85-.13-2.54.13-.4.36-.79.59-1.16.3-.46.56-.96.66-1.49.23.26.5.66.53,1.06.13,1.02,1.16,2.84,3.27,3.7,1.91.79,1.78,2.74,1.78,2.81h0c-1.16.92-1.85,2.28-1.85,2.34-.07.1,0,.26.1.33.13.07.26,0,.33-.1,0,0,.73-1.45,1.88-2.21.13.2.3.59.53.89.4.5,1.12,1.85,1.02,2.84-1.02.96-1.78,1.98-2.05,3M119.6,182.81c-1.42.2-2.74.36-4.03.59.4-4.03-2.31-7.85-3.27-9.04.3-.4,1.06-1.29,1.65-1.82s.59-1.45.56-2.01c.89.59,3,2.28,3.66,5.38-.1.13-.26.63-.66,1.02-.53.5-1.09,1.19-.96,2.05,0,.13.13.23.26.2.1,0,.2-.17.2-.3-.13-.66.36-1.22.83-1.65.3-.33.5-.63.63-.89,1.82,2.11,1.22,5.84,1.12,6.47M115.08,183.47c-1.45.26-2.87.5-4.16.79,0-.86-.17-4.22-1.58-5.25l-.26-.2c-.2-.36-.46-.69-.69-.99.13-.3.63-1.39,1.62-1.98l.56-.33c.66-.4,1.09-.63,1.32-.92h0c.86,1.06,3.73,4.95,3.23,8.91M110.42,184.36c-1.62.33-3.04.66-4.32.99.03-2.21-1.55-4.26-2.08-4.95.59-.43,2.34-1.82,2.48-3.5.63.36,1.88,1.29,2.34,2.61-.07.23-.23.5-.5.66-1.09.69-1.58,1.45-1.55,2.28,0,.17.13.26.26.23.13,0,.23-.1.23-.26-.03-.63.4-1.22,1.32-1.82.43-.26.63-.63.73-.92.99,1.19,1.09,4.16,1.09,4.69M151.68,167c-.2.1-.4.23-.66.3-.99.43-1.52,1.12-1.78,1.72-.2-.26-.43-.66-.76-1.12-.23-7.26.4-9.11.53-9.44,1.12.26,2.15.56,3.14.89-.33.66-.76,2.51-.46,7.62M148.01,167.3c-.26-.3-.5-.56-.76-.83-1.09-.99-1.12-1.91-1.12-1.91v-.5l-.4.26-.17.17c.1-3.63.3-6.24.33-6.6.92.13,1.78.3,2.67.5-.2.56-.69,2.67-.53,8.91M145.41,157.82s-.26,3-.33,7c-.76.66-1.98,1.72-2.87,3,0-5.05.2-9.44.26-10.36.96.1,1.95.2,2.97.33M141.74,168.62c-.23.43-.4.89-.5,1.32-.79-.53-1.52-1.09-2.11-1.58-.3-1.78-.07-9.93-.03-11.09.86,0,1.85.1,2.87.2-.03.92-.33,5.74-.23,11.16M138.61,167.89c-.69-.66-1.12-1.22-1.12-1.75v-.23h-.5v.23c0,.53-.43,1.09-1.12,1.75.2-2.57,0-9.54,0-10.63h2.74c0,1.09-.23,8.05,0,10.63M135.31,168.39c-.59.5-1.32,1.06-2.11,1.58-.1-.43-.26-.89-.5-1.35.07-5.41-.2-10.23-.26-11.12,1.06-.1,2.05-.17,2.9-.2,0,1.16.26,9.31,0,11.09M132.21,167.86c-.89-1.29-2.11-2.38-2.87-3-.1-3.99-.33-6.86-.33-7,.99-.13,1.98-.23,2.94-.33.07.89.3,5.28.26,10.36M128.84,164.49s-.1-.13-.13-.17l-.36-.26v.5s0,.92-1.12,1.91c-.23.26-.5.53-.76.83.13-6.24-.36-8.35-.56-8.91.86-.17,1.75-.33,2.64-.46,0,.33.23,2.94.3,6.57M125.97,167.92c-.33.46-.56.86-.76,1.12-.26-.59-.79-1.29-1.78-1.72-.23-.07-.46-.2-.66-.3.33-5.15-.07-7-.4-7.62.92-.33,2.01-.66,3.07-.89.13.33.73,2.18.53,9.44M152.47,158.95c-4.62-1.75-11.75-2.18-15.25-2.18s-10.63.46-15.25,2.18c-.3-.2-.23-.5-.23-.53h0c.63-.59,1.25-1.42,1.52-2.38,1.78-.5,4.29-.96,7.49-1.32h0c1.29-.13,2.67-.26,4.19-.36l2.05,2.15.1.1h.07s.13,0,.17-.1l2.08-2.15c1.49.1,2.9.23,4.19.4h0c3.17.33,5.71.83,7.49,1.35.26.99.92,1.78,1.52,2.34,0,0,.07.33-.23.53M134.55,153.93c-1.16.1-2.21.17-3.2.26l1.62-1.91,1.62,1.65h-.03ZM143.1,154.19c-1.02-.1-2.11-.17-3.23-.26l1.62-1.65s1.62,1.91,1.62,1.91ZM143.82,145.94l-2.18,2.08-2.54-2.48c1.12.1,2.87.2,4.72.4M151.55,147.26s-.03.23-.07.36c-.59.1-1.12.83-1.65,1.62,0,.03-.07.13-.13.2l-3.37-3.2c1.88.26,3.73.59,5.21,1.02M151.12,155.55c-1.35-.4-3.1-.73-5.18-.99l2.94-3.07c.26.33.56.79.86,1.25.46.83.89,1.58,1.45,1.78-.07.36-.07.69-.03,1.02M135.34,145.51l-2.54,2.48-2.18-2.08c1.91-.23,3.63-.33,4.72-.4M128.11,146.21l-3.33,3.17s-.1-.13-.13-.17c-.56-.79-1.06-1.52-1.68-1.62,0-.13-.03-.26-.07-.36,1.49-.46,3.33-.79,5.18-1.06M123.36,155.55c0-.36,0-.69-.03-1.02.56-.2.99-.96,1.45-1.78.26-.43.56-.92.83-1.25l2.9,3.04c-2.11.3-3.8.63-5.15,1.02M120.52,158.81c0-.4-.13-.86-.59-1.25-.56-.5-.79-1.49-.83-1.88.4-.2,1.42-.86,2.05-2.08.3.4.89.92,1.65.96.4,2.08-1.42,3.63-2.28,4.22M121.12,151.32c.17,2.71-1.98,3.8-2.34,3.96-.17,0-.69-.1-.89-.36-.1-.17-.13-.3-.1-.5.33-.3,1.88-1.68,1.82-2.94-.1-1.49-.96-2.18-1.82-2.64,0-.2.03-.56.4-.73h.1c.53,0,2.61.53,2.81,3.17M119.1,151.52c.03.89-1.02,2.05-1.62,2.51-.3-.2-1.16-.83-1.25-2.15-.13-1.39.96-2.28,1.32-2.57,1.02.59,1.49,1.22,1.55,2.21M122.47,147.63c-.89.17-1.65.79-1.95,1.09-.5-.53-1.09-.86-1.62-.99-.07-.5-.13-1.19.13-1.45.4-.36.99-1.35.92-2.51.69.43,2.18,1.65,2.51,3.86M156.69,154.46c.03.17,0,.36-.1.5-.23.26-.69.36-.92.36-.36-.17-2.51-1.29-2.34-3.96.2-2.67,2.24-3.2,2.81-3.2h.1c.36.17.43.56.43.73-.86.5-1.72,1.16-1.85,2.64-.07,1.25,1.49,2.61,1.85,2.94M125.44,150.96c-.43.33-.76.92-1.09,1.55-.46.73-.89,1.58-1.39,1.58-.86.07-1.49-.79-1.65-.99.2-.53.3-1.12.26-1.78-.07-.96-.36-1.68-.76-2.21.26-.26,1.06-.96,1.95-1.02.46-.03.99.73,1.49,1.42.07.13.17.26.26.36.03,0,0,.03.03.07h.03c.3.4.59.79.89.99M158.21,151.88c-.1,1.32-.96,1.95-1.29,2.15-.53-.46-1.65-1.62-1.58-2.51.07-.99.53-1.62,1.55-2.21.36.26,1.45,1.19,1.32,2.57M155.37,155.68c-.07.4-.3,1.39-.86,1.88-.46.4-.59.86-.63,1.25-.83-.59-2.67-2.15-2.28-4.22.76-.03,1.39-.56,1.72-.92.63,1.19,1.62,1.82,2.05,2.05M155.47,147.73c-.5.13-1.06.46-1.58.99-.3-.3-1.02-.92-1.95-1.09.33-2.21,1.82-3.43,2.54-3.86-.1,1.16.5,2.15.89,2.51.26.26.23.96.1,1.45M153.1,153.14c-.2.26-.83.99-1.68.92-.46,0-.92-.89-1.35-1.58-.33-.63-.69-1.22-1.09-1.55.43-.3.83-.86,1.22-1.45.5-.66,1.02-1.45,1.49-1.42.86.07,1.68.76,1.95,1.02-.4.53-.69,1.25-.73,2.21-.07.69.03,1.32.23,1.85M148.34,150.66v.5h.1l-3.1,3.3c-.53-.07-1.02-.13-1.52-.2l-1.98-2.38,2.44-2.51-.69.1c-.2.07-.53-.2-.66-.3l-.89-.89,2.48-2.34c.33.03.69.07,1.06.13l3.86,3.7c-.36.5-.73.89-1.06.83M132.6,151.92l-1.95,2.38c-.56.07-1.09.13-1.58.17l-3.1-3.27h.1v-.5c-.33.03-.69-.36-1.06-.86l3.89-3.66c.33-.07.73-.1,1.02-.13l2.48,2.34-.89.89s-.46.33-.63.3l-.73-.1,2.44,2.51v-.07ZM143.1,149.9l-1.72,1.78s-.07,0-.07.03c0,0,0,.03-.03.07l-4.06,4.19-5.91-6.11c.26-.1.5-.3.53-.33l5.35-5.18,5.35,5.18s.26.23.53.33M152.6,144.89c-.4.5-.73,1.16-.96,1.91-3.99-1.22-10.79-1.65-13.1-1.82l-1.16-1.12-.1-.07c-.13,0-.2,0-.23.07l-1.16,1.12h0c-2.24.13-8.98.56-13.07,1.82-.2-.79-.53-1.42-.92-1.91,3.2-1.72,15.21-2.01,15.35-2.01h0s12.11.3,15.38,2.01M139.37,142.44c-1.19-.07-2.01-.07-2.11-.07h0c-.13,0-.92,0-2.11.07-.03,0-.86-.89-.86-2.08,0-.3,0-.56.13-.86.3-.83,1.06-1.45,1.72-2.05.46-.43.89-.79,1.16-1.19.23.4.66.76,1.12,1.19.66.59,1.42,1.25,1.72,2.05.56,1.58-.69,2.94-.73,2.94M142.54,142.64c-.96-.1-1.82-.13-2.57-.17.4-.53,1.06-1.72.56-3.14-.33-.92-1.12-1.62-1.85-2.24-.63-.53-1.22-1.06-1.22-1.55,0-.13-.1-.23-.23-.23h0s-.26.13-.26.23c0,.46-.59,1.02-1.19,1.55-.73.63-1.55,1.32-1.85,2.24-.5,1.42.17,2.61.56,3.14-.76,0-1.65.1-2.61.17-.26-.36-1.55-2.31-.43-4.22.53-.89,1.55-1.85,2.61-2.81,1.29-1.16,2.61-2.34,3.14-3.56.5,1.22,1.82,2.41,3.14,3.56,1.06.96,2.08,1.91,2.61,2.81,1.19,1.95-.13,3.86-.43,4.22M143.1,142.71c.33-.53.89-1.58.83-2.84h0c.4-.76,1.09-1.52,1.49-1.91.26-.3.59-.83.86-1.29.13.66.43,1.58,1.16,2.51.99,1.25.99,3.17,1.06,3.96v.2c-1.72-.3-3.63-.46-5.38-.59M153.66,143.76c-.26.2-.53.43-.79.76-.83-.46-2.24-.86-3.89-1.12v-.3c0-.63-.07-1.91-.5-3.07h0c0-.4,1.16-1.39,2.11-2.05.17.89.96,2.08,1.85,3.2.69.96,1.12,2.18,1.22,2.57M150.59,137.4c-.46.33-1.85,1.29-2.38,2.11-.1-.26-.26-.46-.43-.66-.86-1.06-1.06-2.18-1.12-2.71.13-.33.69-1.06,1.25-1.62.26-.26.56-.73.76-1.09.17.4.56,1.06,1.39,2.05.59.69.56,1.65.53,1.95M147.75,133.96l-.2.2c-.26.3-.63.69-.89,1.06v-.56l-.5,1.02s-.66,1.42-1.12,1.88c-.4.4-.89.96-1.29,1.55-.1-.33-.23-.63-.4-.96-.56-.96-1.65-1.88-2.71-2.9-.73-.63-1.39-1.25-1.95-1.88,4.98,0,8.05.4,9.01.56M135.7,133.43c-.56.63-1.25,1.25-1.95,1.88-1.12.99-2.15,1.91-2.74,2.9-.17.33-.3.63-.36.92-.33-.46-.76-.96-1.32-1.52-.46-.46-1.12-1.85-1.12-1.88l-.53-1.06v.59c-.23-.36-.56-.76-.83-1.06l-.2-.2c.96-.17,3.99-.56,9.04-.56M127.75,136.11c-.07.56-.26,1.65-1.16,2.71-.13.23-.26.43-.4.66-.56-.83-1.91-1.78-2.34-2.11-.07-.3-.07-1.25.5-1.95.83-.99,1.22-1.62,1.39-2.05.2.36.5.83.76,1.09.56.53,1.12,1.29,1.25,1.62M131.31,142.71c-1.75.13-3.7.33-5.38.59v-.2c0-.83.1-2.74,1.06-3.96.76-.92,1.06-1.88,1.19-2.51.26.46.56.99.86,1.29.73.69,1.22,1.35,1.52,1.91-.07,1.25.46,2.34.79,2.87M125.97,140.04c-.43,1.16-.46,2.44-.5,3.07v.3c-1.65.26-3.07.63-3.89,1.12-.26-.33-.53-.56-.79-.76.13-.4.53-1.62,1.25-2.57.86-1.16,1.65-2.34,1.85-3.2,1.06.76,2.08,1.68,2.11,2.05h0M131.02,133.07c-2.67.17-4.22.4-4.65.43,0-.07-.1-.13-.1-.2h0c0-.79.17-2.05,1.29-3.73.2-.3.36-.76.43-1.16.23.26.59.5,1.02.83.56.43,1.22.89,1.42,1.22.36.53.56,1.91.63,2.57M134.42,132.94c-1.06,0-2.05.07-2.94.1,0-.5-.23-2.11-.69-2.81-.07-.13-.17-.23-.3-.36,0-.43.26-.66.79-1.09.13-.13.26-.23.43-.33.4-.36.73-.79.96-1.09.26.46.69.96,1.12,1.49.3.36.59.73.79,1.02.43.56.03,2.28-.17,3M143.92,129.9s-.23.23-.3.36c-.46.66-.66,2.31-.69,2.81-.89-.03-1.82-.1-2.9-.1-.26-.96-.56-2.48-.2-3,.2-.33.5-.69.79-1.02.43-.53.89-1.06,1.16-1.49.2.26.53.69.99,1.09.13.1.26.2.36.33.53.43.83.66.76,1.09M148.18,133.34s-.1.13-.13.2c-.43-.07-2.01-.26-4.65-.43.07-.69.26-2.05.63-2.57.2-.33.86-.83,1.39-1.22.43-.33.79-.59,1.02-.83.07.4.23.83.43,1.16,1.12,1.68,1.32,2.97,1.32,3.7h0M142.9,124.79c-.5.5-.89,1.12-1.02,1.98l-.23-.33-.13.46c-.1.2-.26.5-.53.79,0-.66-.17-1.55-.86-2.08l-.43-.33s-.33-.26-.53-.4c.17-.17.5-.53,1.02-.92.46-.36.83-.79,1.06-1.09.17.26.43.63.79.89.56.4.89.89.89,1.02M146.63,126.7l-.3,1.12c-.03.17-.73.69-1.19,1.06-.26.2-.53.4-.76.59-.13-.46-.53-.76-.92-1.09-.1-.1-.26-.23-.4-.33-.3-.26-.53-.56-.76-.79,0-2.61,2.84-3.43,4.03-3.66-.17.43-.26,1.09.13,2.08.13.33.13.66.13.96M140.49,128.32s-.17.17-.23.26c-.33.4-.59.76-.83,1.06-.53.79-.13,2.61.07,3.3h-1.19c-.5-.63-.86-1.25-.86-1.88v-.26h-.5v.26c0,.63-.33,1.25-.86,1.88h-1.19c.2-.73.59-2.51.07-3.3-.23-.3-.5-.66-.83-1.06-.07-.1-.13-.17-.23-.26,0-.17-.23-1.65.66-2.34l.43-.36c.99-.76,1.82-1.39,2.18-1.91.4.53,1.16,1.16,2.18,1.91l.46.36c.89.69.69,2.18.66,2.34M147.45,122.28c-.23.4-.66.69-.89.79-.92-.56-3.23-.89-5.28-1.09v-.07l-.07.07c-1.35-.13-2.54-.2-3.2-.23l1.39-1.45c2.11,0,6.14.79,6.9.96l.89,1.35.26-.3v-.03ZM135.24,124.85s-.36.26-.5.4l-.43.33c-.73.56-.89,1.39-.89,2.05-.23-.3-.43-.59-.5-.79l-.13-.46-.23.33c-.1-.83-.5-1.49-.99-1.98,0-.13.33-.63.89-1.02.36-.26.63-.63.79-.89.2.3.56.73,1.02,1.09.5.4.86.73.99.92M132.14,127.33c-.2.23-.46.53-.76.79-.13.1-.23.23-.4.33-.4.3-.79.63-.89,1.09-.23-.2-.53-.4-.79-.59-.46-.36-1.16-.89-1.19-1.06l-.26-1.49v.33c0-.26,0-.59.13-.92.4-.99.3-1.65.1-2.08,1.22.23,4.03,1.06,4.06,3.66M132.9,122.51c-.17.2-.4.59-.79.86-.43.33-.79.76-.96,1.09-.83-.66-1.85-1.02-2.57-1.19.96-.33,2.67-.63,4.32-.79M145.87,123.27c-.73.17-1.72.53-2.57,1.19-.17-.33-.53-.79-.99-1.09-.36-.26-.63-.66-.76-.86,1.68.2,3.37.43,4.29.79M140.92,122.44c-.17.2-.53.69-1.06,1.12-.56.43-.92.79-1.09.99-.69-.56-1.35-1.12-1.35-1.45h-.46c0,.3-.66.89-1.32,1.45-.17-.2-.53-.56-1.09-.99-.53-.43-.89-.92-1.06-1.12,1.35-.13,2.57-.23,3.37-.26l.23.26h.2l.26-.26c.79.03,2.05.13,3.37.26M136.43,121.72c-.66.03-1.88.1-3.23.23v-.07l-.03.07c-2.08.2-4.36.56-5.31,1.09-.2-.13-.59-.43-.86-.79l.23.3.92-1.35c.73-.17,4.79-.96,6.86-.96l1.42,1.45v.03ZM142.01,117.56l.5-.53-.73.13s-.33-.13-.4-.23l-2.08-2.01c1.82.13,5.02.46,6.01.89l-1.02,1.09-.23.2-.63-.13,2.44,3.66c-1.22-.26-4.13-.79-6.04-.86l2.15-2.24.03.03ZM131.88,117.03l2.67,2.77c-1.91.1-4.79.63-6.04.86l2.44-3.66-.56.13s-.2-.1-.3-.23l-.99-1.06c.99-.43,4.22-.76,6.01-.89l-2.08,2.01s-.3.23-.43.23l-.73-.13v-.03ZM147.29,113.73l-1.65,1.75c-1.25-.69-6.11-1.02-6.86-1.06l-1.42-1.35-.1-.07h-.2l-1.49,1.42c-.76.03-5.61.36-6.86,1.06l-1.65-1.75c1.19-.89,6.57-1.35,10.1-1.42,3.53.07,8.91.53,10.07,1.42M129.5,112.51c-1.19.2-2.18.5-2.67.89l-.36-.4c0-.3.1-1.29.73-2.28.43-.76.5-1.35.43-1.78.86.46,2.54,1.65,1.91,3.56M130.03,112.41c.4-1.65-.66-2.81-1.58-3.47.3-.66.23-1.91.13-2.57,1.91.86,3.1,2.64,3.33,3.07-.13,1.12.26,2.21.46,2.67-.79.07-1.58.17-2.34.3M133.13,107.23c-.3.3-.53.59-.73.89-.17.2-.3.43-.33.66-.5-.69-1.58-2.01-3.17-2.74-.13-.96.23-3.1.43-4.13.1.1.2.2.26.33,0,.07.03.17.13.2h.07s.1.13.2.2c3.04,2.57,3.07,4.29,3.07,4.59M134.98,105.35c-.23.23-.46.43-.63.63-.3.26-.53.56-.79.79-.13-.79-.73-2.41-3.2-4.42-.07-.07-.17-.17-.2-.23.2-.69.3-2.05.33-2.81.4.4.99.86,1.78,1.49.73.56,1.45,1.19,1.85,1.58.89.86.86,2.81.86,3.04M141.55,112.05c-.79-.03-1.52-.1-2.18-.13.46-.5,1.16-1.49.76-2.67-.3-.89-1.12-1.39-1.75-1.82-.5-.3-.92-.59-.92-.89v-.23h-.5v.23c0,.3-.43.56-.92.89-.63.4-1.45.92-1.75,1.82-.4,1.19.26,2.18.76,2.67-.69,0-1.42.1-2.21.13-.13-.23-.63-1.39-.43-2.61,0-.33.17-.73.4-1.09.43-.59,1.12-1.29,1.85-2.05,1.02-.99,2.08-2.08,2.54-3.07.46.99,1.52,2.05,2.54,3.07.73.76,1.45,1.45,1.85,2.05.99,1.49.1,3.37-.07,3.7M138.74,111.88h-3.04s-1.35-1.12-.92-2.44c.23-.73.92-1.19,1.55-1.55.36-.23.73-.46.92-.69.23.23.56.5.92.69.63.4,1.29.83,1.55,1.55.43,1.32-.92,2.44-.92,2.44M144.45,112.41c-.76-.13-1.58-.23-2.38-.33.2-.46.56-1.45.46-2.51.03-.07,1.22-2.24,3.33-3.2-.07.66-.13,1.91.13,2.57-.89.69-1.91,1.85-1.52,3.47M144.28,102.08s-.13.17-.2.2c-2.54,2.11-3.14,3.66-3.23,4.46-.23-.26-.5-.53-.76-.79-.23-.2-.43-.4-.63-.63,0-.2,0-2.15.86-3.04.4-.4,1.12-1.02,1.85-1.58.79-.63,1.39-1.09,1.78-1.49,0,.79.13,2.11.33,2.81M145.54,106.01c-1.62.79-2.67,2.15-3.14,2.87-.07-.23-.2-.53-.36-.76-.17-.33-.43-.59-.73-.92h0s-.26-1.75,3.1-4.52c.07-.07.13-.13.2-.2h.07s.13-.13.13-.2c.1-.13.2-.23.26-.33.2,1.02.59,3.1.46,4.06M148.01,113.01l-.36.4c-.5-.4-1.45-.69-2.64-.89-.59-1.85,1.02-3.07,1.85-3.53-.03.43,0,.99.46,1.75.59.99.69,1.98.69,2.28M130.09,117.46l-2.28,3.37s-.07.07-.1.13l-.56.83-3.4-3.73s.23-.2.26-.23l2.21-4.32.33.3s0,.1.07.13h.07l3.07,3.27s.13.17.33.23M141.38,117.53l-4.16,4.32-4.19-4.32s.33-.2.36-.23l3.83-3.73,3.83,3.73s.17.13.33.23M150.69,118.05l-3.4,3.73-.56-.83s-.03-.1-.07-.13l-2.24-3.37s.26-.2.3-.23l3.04-3.27h.07s.07-.07.07-.13l.33-.3,2.18,4.29h0s.13.2.3.26M137.35,100.3h-.23s-2.31-.3-2.31-2.57c0-1.22.66-1.95,1.25-2.61.46-.56.89-1.02.89-1.65v-.23h.46v.23c0,.63.43,1.09.92,1.65.59.63,1.25,1.39,1.25,2.61,0,2.28-2.28,2.57-2.28,2.57M142.96,96.77c-.17-.73-.53-1.78-.66-2.28-.53.26-1.19.69-1.32,1.06-.03.13-.17.17-.3.13-.1-.03-.2-.2-.13-.3.2-.63,1.22-1.19,1.62-1.39,0-.33-.13-1.09-.13-2.05,0-.86.3-2.21.43-3l-.13.1c-3.47,1.62-3.66,3.56-3.66,3.6,0,.13-.13.23-.26.2-.13,0-.23-.1-.23-.23,0-.1.23-2.24,3.89-3.96l.59-.46c-1.06-.26-3.37-.4-5.51-.4s-4.42.13-5.48.4l.63.46c3.63,1.68,3.83,3.86,3.83,3.96,0,.13-.07.23-.23.26-.13,0-.26-.1-.26-.23,0-.03-.23-2.01-3.63-3.56l-.2-.1c.2.76.46,2.15.46,3,0,.96-.1,1.72-.13,2.05.4.23,1.39.76,1.62,1.39.07.13,0,.26-.13.3s-.26,0-.3-.13c-.13-.36-.79-.79-1.32-1.06-.13.5-.5,1.55-.66,2.28-.23.96.13,2.77.13,2.81h0c.33.26.69.56,1.02.83.69.56,1.45,1.19,1.88,1.58.79.76.96,2.11.99,2.9.83-.89,1.52-1.82,1.52-2.54v-.26h.46v.26c0,.73.73,1.65,1.55,2.54.03-.76.2-2.11.96-2.9.43-.43,1.16-1.02,1.91-1.58.33-.26.66-.56,1.02-.83h0s.36-1.85.13-2.81M146.69,85.08l-2.67,3.7-1.65-3.1h0l-.59-1.12s.23-.23.26-.26l2.71-3.66,1.75,4.26.23.23M142.96,87.82c-1.45-.43-4.65-.46-5.78-.46s-4.26.03-5.71.46l.99-1.88c.33-.3,2.71-.5,4.75-.5s4.42.2,4.75.5c0,0,.99,1.88.99,1.88ZM143.56,81.39l-.5.63c-1.02-.5-4.62-.76-5.87-.83-1.16.07-4.82.3-5.81.83l-.46-.63c-.07-.3.07-.59.13-.69,1.98-.86,6.14-.92,6.14-.92,0,0,4.26.07,6.24.92.07.1.17.36.17.69M140.92,83.99l.73,1.29c-1.25-.33-3.6-.33-4.42-.33s-3.17,0-4.42.33l.46-.83.3-.46-.53.13s-.13-.1-.2-.2l-1.12-1.55c.66-.26,3.27-.59,5.58-.69,2.28.1,4.92.4,5.54.69l-1.16,1.55s-.17.17-.17.2l-.53-.13h-.07ZM132.67,84.49l-.59,1.12h-.03l-1.65,3.14-2.67-3.66s.2-.2.23-.26l1.72-4.22,2.71,3.66s.13.17.23.26M138.77,32.08c-.43-.07-.92-.1-1.52-.1s-1.16.03-1.55.1c-.1-.3-.23-.83.2-1.12.59-.43,1.06-.73,1.35-1.02.26.3.76.63,1.39,1.06.43.26.26.79.17,1.09M140.19,34.03c0,1.78-2.77,1.58-2.97,1.58,0,0-1.02.1-1.88-.26h-.07c-.66-.26-.96-.73-.96-1.35s0-1.19,1.19-1.42c0,0,.13,0,.17-.03h.03c.4-.1.89-.13,1.55-.13s1.12.03,1.52.13h0l.1.07h.1c1.22.26,1.22.86,1.22,1.45M147.85,33.7c0,4.82-3.2,8.94-7.82,10.17l-.17-2.05c3.53-1.12,5.97-4.39,5.97-8.12,0-4.72-3.8-8.52-8.51-8.52h-.2c-4.69,0-8.51,3.8-8.51,8.52,0,3.7,2.44,7,5.97,8.12l-.17,2.05c-4.62-1.22-7.85-5.35-7.85-10.17,0-5.81,4.75-10.56,10.53-10.56h.2c5.81,0,10.53,4.72,10.53,10.56M137.35,79.01h-.23s-2.31-.3-2.31-2.57c0-1.19.66-1.95,1.25-2.61.46-.53.89-1.02.89-1.65v-.23h.46v.23c0,.66.43,1.12.92,1.65.59.66,1.25,1.39,1.25,2.61,0,2.28-2.28,2.57-2.28,2.57M143.29,76.73c-.13-.86-.4-1.55-.63-2.24-.23-.66-.43-1.25-.43-1.82v-.1h0c-.53.4-1.29,1.06-1.49,1.78-.03.1-.17.2-.3.13-.13-.03-.2-.13-.17-.3.26-.89,1.22-1.68,1.78-2.08.13-1.16,0-3.27-.17-4.06-.2-.79-.4-1.85-.5-2.51-.2.3-.5.69-.83,1.12-.83.89-1.32,2.11-1.32,2.11,0,.1-.2.2-.3.13-.13-.07-.2-.2-.17-.33,0-.03.53-1.29,1.39-2.24.46-.5.76-.99.96-1.29l-1.58-20.69s-.07-.1-.07-.13c0-.07,0-.17.03-.2l-.17-2.34h0v-.1l-.43-5.71c-.4.13-.86.17-1.39.17h-.3s-.89.07-1.72-.17l-.43,5.71v.07h0l-.2,2.34c.07,0,.07.13.07.2,0,.03-.07.07-.1.1l-1.58,20.69c.2.3.5.79.96,1.29.86.96,1.35,2.21,1.39,2.24.03.13,0,.26-.13.33s-.3,0-.33-.13c0,0-.53-1.22-1.29-2.11-.4-.43-.69-.83-.86-1.12-.1.66-.3,1.72-.5,2.51-.17.79-.33,2.9-.17,4.06.56.4,1.49,1.19,1.75,2.08,0,.13,0,.23-.17.3-.13.07-.23-.03-.3-.13-.2-.69-.99-1.39-1.49-1.78h0c0,.59-.17,1.22-.4,1.91-.23.66-.5,1.39-.63,2.24-.23,1.82.59,2.9.83,3.17,2.18-.56,5.15-.63,5.35-.63.13,0,3.14.07,5.31.63.23-.26,1.06-1.35.79-3.17M139.17,97.72c0,1.82-1.68,2.08-1.88,2.11h-.13s-1.88-.26-1.88-2.11c0-1.02.56-1.65,1.16-2.28.3-.33.59-.66.79-1.06.2.4.5.73.79,1.06.56.63,1.12,1.25,1.12,2.28M139.17,76.44c0,1.78-1.68,2.08-1.88,2.08h-.13s-1.88-.23-1.88-2.08c0-1.02.56-1.68,1.16-2.28.3-.33.59-.66.79-1.06.2.4.5.73.79,1.06.56.63,1.12,1.25,1.12,2.28M3.06,255.74l-.79-2.84.83-.23c.59-.46,1.25-.99,1.95-1.62.69-.59,1.35-1.22,2.01-1.88.66-.63,1.25-1.29,1.82-1.95.56-.66,1.02-1.29,1.39-1.85-.56-.36-1.19-.66-1.91-.92s-1.45-.4-2.15-.46c.4.92.36,1.75-.07,2.51-.46.76-1.12,1.25-2.01,1.49s-1.72.13-2.48-.3c-.79-.43-1.29-1.09-1.52-1.98-.17-.59-.17-1.19,0-1.78.17-.59.5-1.09.92-1.45.23-.17.43-.33.66-.5.2-.17.46-.26.76-.4.3-.1.66-.2,1.06-.23.4-.03.92-.03,1.52,0,1.52.1,2.87.33,4.06.76,1.19.4,2.15.83,2.84,1.22.17-.1.33-.13.5-.13s.36.07.53.2c.17.13.3.26.43.43.13.17.2.33.23.53,0,.3-.17.73-.53,1.32s-.83,1.22-1.39,1.91-1.16,1.39-1.78,2.05c-.63.66-1.19,1.19-1.72,1.62l4.92-1.35s.13,0,.26-.07c.17,0,.33-.03.53-.07h.53c.17,0,.3.07.4.17.33-.69.59-1.52.79-2.51.2-.96.1-2.08-.23-3.33-.26-.99-.66-1.78-1.12-2.34-.46-.59-1.02-1.02-1.58-1.25-.59-.26-1.22-.4-1.88-.4s-1.32.1-1.98.3l-.73-2.57c1.09-.3,2.11-.4,3.14-.3,1.02.1,1.95.4,2.81.86.86.5,1.58,1.16,2.21,1.98.63.86,1.12,1.88,1.45,3.1.3,1.09.46,2.08.46,2.94s-.1,1.62-.3,2.34c.23.1.53.26.89.46s.73.43,1.12.66c.4.23.79.5,1.22.76s.79.53,1.19.79l-1.42,2.24c-.56-.43-1.16-.86-1.75-1.25-.59-.4-1.19-.76-1.78-1.06,0,.17-.03.3-.1.5-.03.17-.13.36-.3.59-.2.3-.36.5-.53.63-.17.13-.33.17-.5.17s-.33-.03-.5-.1-.36-.17-.59-.23c-.23-.1-.46-.13-.66-.13s-.5.07-.89.17l-10.26,2.84.03-.03ZM3.66,246.14c.36-.1.63-.3.79-.63.17-.33.23-.66.13-1.02-.1-.4-.33-.66-.66-.83s-.66-.2-.99-.1c-.36.1-.63.3-.79.63-.2.33-.23.66-.13,1.02s.3.63.63.79c.33.2.66.23,1.02.13ZM22.6,269.14s.1-.2.23-.53c.13-.33.23-.73.33-1.25.07-.5.1-1.09.07-1.75s-.23-1.35-.53-2.05c-.4-.86-.83-1.52-1.29-2.01s-.92-.83-1.35-1.06c-.46-.23-.86-.36-1.25-.4-.4-.07-.73-.1-.96-.1l-.33,1.45c.4.1.76.23,1.06.43.33.2.66.46,1.02.83-.23.43-.43.76-.56,1.02-.13.26-.33.56-.56.96-.56-.56-1.19-.89-1.85-.96-.66-.1-1.32,0-1.98.33l-1.25.56c.13.2.26.36.36.56.4.83.43,1.65.1,2.51-.3.83-.86,1.45-1.72,1.82-.83.4-1.68.43-2.51.13-.86-.3-1.45-.86-1.85-1.68-.13-.3-.23-.63-.33-1.06s-.07-.86,0-1.32c.1-.46.3-.89.59-1.32.3-.43.76-.79,1.39-1.06l4.09-1.88c.46-.2.83-.36,1.09-.4.26-.07.46-.07.66,0l.5-3.5c.17,0,.63-.03,1.32-.07.69,0,1.49.1,2.38.4.89.3,1.82.79,2.77,1.52s1.78,1.82,2.48,3.3c.36.79.63,1.55.76,2.28s.2,1.35.17,1.95c0,.59-.1,1.12-.23,1.58-.13.46-.26.86-.43,1.19.17,0,.3.17.36.46s0,.69-.2,1.19c-.13.33-.26.56-.4.69s-.3.23-.46.26h-.5c-.17-.03-.4-.1-.63-.13s-.46-.07-.66,0c-.2,0-.5.13-.86.3l-9.54,4.42-1.25-2.71,9.93-4.59c.3-.13.59-.23.92-.33.33-.1.63-.07.96.03l-.07-.03ZM11.31,267.79c.33-.17.56-.4.69-.76.13-.33.1-.69-.03-1.02-.17-.36-.43-.59-.76-.73-.33-.13-.69-.1-1.02.03-.36.17-.59.43-.73.76-.13.33-.1.69.07,1.06.17.33.4.56.76.69.33.13.69.1,1.06-.07l-.03.03ZM22.17,292.94l-1.62-2.44,9.77-6.4c.17-.17.43-.26.73-.33.3-.1.53-.1.69,0,.13-.59.2-1.25.2-2.01s-.3-1.55-.92-2.38c-.43-.59-.86-1.06-1.32-1.32-.46-.26-.89-.43-1.35-.5-.43-.07-.89,0-1.29.1-.43.1-.83.26-1.16.46l-1.52-2.34c1.62-.86,3.2-1.12,4.79-.83,1.55.3,2.94,1.32,4.09,3,.43.59.73,1.16.92,1.68.2.53.33,1.06.4,1.55.07.5.07.96,0,1.42s-.13.89-.23,1.29c.13.1.23.26.3.53s.03.63-.07,1.06c-.1.33-.2.59-.3.76-.13.17-.26.26-.4.33-.17.07-.33.07-.5.07-.2,0-.4,0-.66-.03-.26,0-.46,0-.69.1-.2.07-.5.23-.83.43l-9.01,5.91-.03-.1ZM29.37,301.81s-.33-.17-.56-.23c-.2-.1-.33-.23-.4-.46-.07-.2-.07-.46-.07-.69s.07-.5.13-.73c.07-.26.13-.43.2-.59.1-.2.23-.33.43-.36s.43-.07.66-.03h.73c.23,0,.46-.1.66-.26l5.38-4.79c-.43-.3-.76-.69-.96-1.12-.23-.43-.33-.89-.36-1.35,0-.46.07-.92.26-1.39.2-.46.46-.86.86-1.19.69-.59,1.49-.89,2.38-.83s1.68.43,2.28,1.09c.46.5.76.99.92,1.49.17.46.2.92.17,1.35-.07.43-.2.83-.43,1.19s-.5.66-.83.96l-7.95,7.13s-.23.17-.36.17h-.33l4.69,5.25c.2.23.36.3.56.26.2,0,.36-.13.53-.26l10.17-9.11,2.01,2.24-10.99,9.8c-.56.5-1.16.66-1.78.53-.63-.13-1.19-.5-1.68-1.02l-6.3-7.06v.03ZM39.4,292.05c.26-.23.43-.56.46-.92,0-.36-.1-.69-.33-.96-.26-.3-.59-.46-.96-.46s-.69.1-.96.33-.43.56-.46.92c0,.36.1.69.36.99.26.26.56.43.92.46.36,0,.69-.1.96-.33v-.03ZM63.16,297.39c-1.78.89-3.47,1.25-5.05,1.12-1.58-.13-3-.53-4.26-1.22-1.25-.69-2.31-1.58-3.17-2.64-.86-1.09-1.42-2.11-1.75-3.14-.17-.56-.2-1.12-.07-1.68.1-.59.36-1.12.79-1.58.63-.66,1.39-1.02,2.28-1.02s1.68.26,2.34.89c.66.63,1.02,1.39,1.02,2.28s-.26,1.68-.89,2.34c-.17.17-.4.33-.69.5-.3.17-.56.23-.76.26.36.5.86.92,1.42,1.35.56.43,1.25.73,2.01.96.76.2,1.62.26,2.57.2.96-.07,2.01-.36,3.17-.89l1.06,2.34-.03-.07ZM53,291.39c.26-.26.36-.59.36-.96s-.17-.66-.43-.92-.59-.36-.96-.36-.66.17-.92.43c-.26.26-.36.59-.36.96s.17.66.43.92.59.36.96.36.66-.13.92-.43ZM53.99,318.94c-.63-.33-1.35-.5-2.15-.5s-1.58.03-2.31.17c-.73.1-1.39.2-1.95.33s-.92.17-1.06.17c-.23,0-.4-.1-.53-.26-.13-.2-.2-.4-.23-.66-.03-.23-.07-.5-.03-.76,0-.26,0-.5.07-.66.07-.2.17-.36.33-.43s.36-.13.59-.17c.23-.03.46-.1.69-.17.23-.07.43-.23.59-.43l4.49-5.64c-.46-.23-.86-.56-1.16-.96s-.5-.83-.56-1.29c-.1-.46-.1-.92,0-1.42s.33-.92.66-1.32c.56-.73,1.32-1.12,2.21-1.22.89-.1,1.72.13,2.44.69.53.43.92.86,1.16,1.32.23.43.36.89.36,1.32s-.07.86-.2,1.22c-.17.4-.36.76-.63,1.09l-5.18,6.5c1.22-.1,2.44.1,3.66.63,1.22.5,2.24,1.12,3.1,1.85.1,0,.17-.07.23-.13.07-.07.17-.13.26-.23l5.35-6.7,2.34,1.88-5.87,7.36s-.23.2-.33.3c-.13.1-.26.17-.43.2.17.59.2,1.25.1,1.88-.1.63-.36,1.22-.79,1.72-.33.43-.73.76-1.19,1.02-.46.23-.92.4-1.42.46s-1.02,0-1.52-.13-.96-.4-1.39-.73c-.86-.69-1.32-1.55-1.45-2.61s.17-2.01.83-2.87c.07-.07.17-.2.3-.33.13-.17.36-.33.66-.5h-.07ZM55.04,307.92c.23-.3.33-.63.3-.99s-.2-.66-.5-.89-.66-.36-1.02-.3c-.36.03-.66.2-.89.5-.23.3-.33.63-.3.99s.2.66.53.92c.3.23.63.33.99.3.36-.03.66-.2.89-.5v-.03ZM57.48,323.33c.3-.36.43-.79.4-1.29-.03-.46-.26-.86-.63-1.16-.4-.3-.79-.43-1.29-.36-.46.07-.86.3-1.16.66-.3.4-.43.79-.4,1.25.07.46.26.86.66,1.16s.79.43,1.25.36.86-.26,1.16-.66v.03ZM69.66,331.72c-.5.79-1.16,1.29-2.01,1.49s-1.68.07-2.48-.4c-.96-.59-1.52-1.32-1.75-2.21-.2-.89-.07-1.75.46-2.61l7.29-11.88,2.57,1.58-5.71,9.31s.2.07.3.1c.1,0,.17.07.26.13.79.5,1.29,1.16,1.49,2.05.2.86.07,1.72-.43,2.48v-.03ZM68.01,330.69c.2-.33.26-.69.17-1.02s-.3-.59-.59-.79c-.33-.2-.66-.26-.99-.17-.33.07-.63.3-.83.63-.2.33-.23.66-.17,1.02.1.36.3.63.59.83.33.2.66.26.99.17.36-.1.63-.3.83-.59v-.07ZM87.78,343.93l-2.71-1.22,5.05-11.12s.07-.17.17-.33c.07-.17.17-.33.3-.53.1-.2.23-.36.36-.53s.26-.26.43-.33c-.1-.3-.33-.56-.73-.83-.4-.26-.69-.4-.89-.43l-10.69,9.54c-.2.17-.53.33-1.02.46-.46.13-.89.26-1.22.33h-.56c-.23,0-.4-.1-.53-.3-.13-.17-.26-.36-.33-.59-.1-.23-.13-.46-.2-.69-.03-.23-.07-.43-.03-.59,0-.23.07-.4.2-.5.13-.1.3-.23.46-.33.2-.1.36-.2.56-.33.2-.1.33-.3.46-.53l3.1-6.83s-.2-.03-.36-.13c-.83-.36-1.42-.99-1.72-1.85-.33-.86-.3-1.68.1-2.54.36-.83.99-1.42,1.85-1.72s1.68-.26,2.51.1c.4.17.73.43,1.02.73.3.3.53.66.69,1.06s.26.83.26,1.25c0,.46-.1.89-.3,1.32l-3.37,7.39,8.58-8.32c.4.07.83.23,1.25.43s.86.43,1.25.73c.4.3.73.59,1.06.89.3.33.53.63.69.92.13-.1.33-.07.59.1.26.17.5.53.66,1.02.1.33.13.59.13.79s-.07.36-.17.5c-.1.13-.23.23-.4.33-.17.1-.36.2-.56.3-.2.13-.4.26-.53.43-.13.17-.3.43-.46.79l-5.05,11.16h.07ZM82.2,325.64c.17-.33.17-.66.03-1.02-.13-.33-.36-.59-.69-.76-.33-.17-.69-.17-1.02-.03s-.59.36-.73.69c-.17.36-.2.73-.07,1.06.13.33.36.59.69.73.33.17.69.17,1.02.03s.59-.36.76-.73v.03ZM110.79,337.56s-.07-.23-.2-.53c-.1-.3-.33-.63-.63-1.02-.3-.36-.73-.76-1.25-1.16-.53-.4-1.25-.69-2.11-.92-.96-.26-1.78-.36-2.48-.26s-1.29.3-1.78.63c-.5.33-.89.73-1.16,1.19-.3.46-.5.96-.63,1.45-.17.56-.26,1.02-.33,1.42s-.1.76-.13,1.09c0,.33-.07.63-.07.92s-.03.59-.07.92c.5-.83.99-1.62,1.52-2.41.53-.79.92-1.32,1.19-1.62.4-.46.86-.79,1.45-.99.56-.2,1.16-.23,1.78-.07.86.23,1.49.73,1.91,1.49.43.76.53,1.55.3,2.38s-.73,1.45-1.45,1.91c-.73.43-1.55.53-2.41.3-.63-.17-1.16-.5-1.55-.99-.59.92-1.22,1.82-1.78,2.64-.53.69-1.02,1.35-1.55,1.98-.53.63-.96,1.06-1.35,1.25-.66.36-1.22.1-1.72-.73-.17-.33-.3-.56-.33-.79-.03-.2.07-.4.26-.63.17-.17.33-.33.5-.46s.3-.3.43-.5c.13-.17.2-.4.26-.63.07-.26.1-.56.1-.96v-2.81c.03-1.09.2-2.15.5-3.23.56-2.01,1.62-3.47,3.23-4.36s3.56-1.02,5.87-.4c1.68.46,2.94,1.09,3.8,1.85.86.79,1.49,1.58,1.88,2.44.17,0,.33.03.56.2.2.13.43.43.66.79.17.3.23.56.26.76,0,.2,0,.36-.1.5s-.2.26-.36.36c-.13.1-.33.23-.5.4-.2.17-.33.33-.46.5-.1.17-.2.46-.33.86l-2.77,10.13-2.87-.76,2.87-10.56c.07-.3.2-.59.33-.92.13-.3.36-.53.63-.69l.07.03ZM106.36,339.6c.1-.36.07-.69-.13-1.02s-.46-.53-.86-.63c-.36-.1-.69-.07-1.02.13-.33.17-.53.46-.63.83s-.07.69.13,1.02c.17.3.46.53.83.63.4.1.73.07,1.06-.1.33-.17.53-.46.63-.79v-.07ZM129.6,326.86c-.1-.23-.26-.59-.46-1.06-.2-.46-.46-.92-.79-1.39-.33-.46-.76-.89-1.29-1.25-.5-.4-1.12-.66-1.88-.76-.63-.1-1.16-.1-1.58-.03-.43.03-.86.17-1.22.36-.36.17-.73.43-1.09.69-.33.3-.73.59-1.12.96,1.09.43,1.98.89,2.67,1.39.69.5,1.25.96,1.65,1.42.4.43.69.79.86,1.12.17.3.26.5.33.53.26.26.36.53.36.76s-.2.59-.56,1.06c-.03.03-.07.07-.1.1,0,0-.07.03-.13.1l-2.21,15.48h.33c.92.17,1.62.59,2.18,1.32.53.73.73,1.52.63,2.38-.13.92-.56,1.62-1.25,2.18-.73.53-1.52.73-2.44.59-.83-.1-1.49-.5-2.01-1.12-.53-.63-.79-1.35-.79-2.15l2.84-20.33c-.43-.56-.92-1.06-1.52-1.55-.59-.46-1.39-.89-2.34-1.25-.07,0-.1.03-.07.07v.07c-.33.23-.56.26-.76.1-.2-.13-.46-.3-.79-.5-.43-.26-.59-.59-.56-1.02.07-.4.3-.83.76-1.25.5-.5.99-.96,1.52-1.49.5-.5,1.06-.96,1.65-1.35s1.29-.69,2.05-.89,1.65-.26,2.67-.2c1.16.1,2.11.4,2.94.86s1.49,1.02,2.05,1.65.99,1.29,1.32,1.98c.33.69.59,1.25.79,1.75l-2.57.76-.03-.07ZM124.15,349.67c.07-.33,0-.66-.23-.92-.2-.26-.5-.43-.83-.5-.33-.03-.66,0-.92.23-.26.2-.43.46-.5.83s0,.69.23.96c.2.26.5.43.83.5.33.03.66,0,.92-.23.26-.2.43-.5.5-.86ZM140.65,348.78c-.69.13-1.35.43-1.98.92s-1.22.99-1.75,1.55c-.53.53-.96,1.02-1.32,1.45-.36.43-.59.69-.73.79-.17.13-.36.17-.59.1-.2-.07-.4-.2-.59-.36s-.36-.36-.5-.59c-.17-.23-.26-.4-.36-.53-.07-.2-.07-.4,0-.53.1-.17.2-.33.36-.5s.3-.36.43-.56.2-.43.2-.69l.13-7.23c-.53.1-1.02.1-1.49-.03s-.89-.36-1.22-.66c-.36-.3-.63-.69-.83-1.12-.2-.46-.3-.92-.3-1.45,0-.92.33-1.68.99-2.31.66-.63,1.45-.96,2.34-.92.69,0,1.25.13,1.72.33s.83.46,1.09.83c.3.33.46.69.59,1.09.1.4.17.83.17,1.25l-.13,8.32c.89-.83,1.98-1.39,3.27-1.75,1.29-.36,2.48-.5,3.6-.43.07-.1.1-.17.1-.26s.03-.2.07-.33l.13-8.58h3l-.13,9.44c-.03.13-.07.3-.1.46,0,.17-.1.3-.23.4.5.4.92.86,1.22,1.45s.46,1.19.43,1.85c0,.53-.13,1.06-.33,1.52-.2.46-.5.89-.86,1.22-.36.36-.79.63-1.29.83-.5.2-1.02.3-1.55.26-1.09,0-2.01-.4-2.74-1.19-.76-.76-1.12-1.72-1.09-2.77v-.46c0-.23.1-.5.2-.79h.07ZM134.75,339.41c0-.36-.13-.69-.36-.96-.26-.26-.56-.4-.92-.4-.4,0-.73.13-.99.36-.26.26-.4.56-.4.92s.13.69.36.96c.26.26.59.4.99.4.36,0,.69-.13.96-.36.26-.26.4-.56.4-.92h-.03ZM146.1,350.1c0-.5-.17-.92-.46-1.25-.33-.33-.73-.53-1.22-.53s-.89.17-1.22.5-.5.76-.53,1.25c0,.5.13.89.46,1.22.33.33.73.5,1.22.53.5,0,.89-.17,1.22-.46.33-.33.5-.73.53-1.22v-.03ZM160.36,325.94c-.17-.2-.4-.53-.69-.92-.3-.4-.66-.79-1.12-1.12-.43-.36-.96-.66-1.55-.92s-1.25-.33-1.98-.26c-.63.07-1.16.2-1.55.33-.43.17-.79.36-1.09.66-.33.26-.59.56-.86.92-.26.36-.53.76-.83,1.19,1.16.13,2.15.36,2.94.66.79.33,1.45.63,1.95.96s.86.63,1.09.86c.23.26.36.4.43.43.3.2.5.43.53.66s-.07.63-.3,1.19c0,.07-.03.1-.07.13,0,0-.07.07-.13.13l1.72,15.54h.33c.92-.13,1.72.1,2.41.66s1.09,1.29,1.19,2.15c.1.92-.13,1.72-.69,2.41-.56.69-1.29,1.09-2.21,1.19-.83.1-1.55-.1-2.21-.59-.66-.46-1.09-1.12-1.29-1.88l-2.28-20.4c-.53-.43-1.16-.79-1.85-1.12-.69-.3-1.55-.53-2.57-.63-.07,0-.07.07-.07.07v.07c-.26.3-.5.4-.69.3-.2-.1-.53-.2-.89-.3-.46-.13-.73-.43-.79-.83-.03-.43.1-.89.4-1.42.36-.59.73-1.19,1.09-1.82s.79-1.19,1.29-1.72c.5-.53,1.06-.99,1.75-1.39.69-.4,1.52-.66,2.54-.83,1.12-.17,2.15-.17,3.07.1.89.26,1.68.59,2.38,1.09.69.46,1.29.99,1.78,1.58.5.56.89,1.09,1.19,1.52l-2.31,1.39-.03-.03ZM160.72,349.41c-.03-.36-.2-.63-.46-.83-.26-.2-.56-.3-.92-.26-.33.03-.63.2-.83.46-.23.26-.3.56-.26.92s.2.66.46.89c.26.2.56.3.92.26.33-.03.63-.2.83-.46s.3-.59.26-.96v-.03ZM182.64,348.02l-2.87.69-.2-.83c-.43-.63-.96-1.29-1.52-2.01-.59-.73-1.19-1.42-1.78-2.08-.63-.66-1.25-1.32-1.88-1.91s-1.25-1.06-1.82-1.45c-.36.53-.73,1.16-.99,1.88-.3.73-.46,1.42-.53,2.11.96-.36,1.78-.3,2.51.17.73.5,1.19,1.19,1.42,2.08.2.89.1,1.72-.4,2.48-.46.76-1.16,1.25-2.05,1.45-.63.13-1.22.13-1.78-.1-.59-.2-1.06-.53-1.42-.96-.17-.23-.33-.46-.46-.66s-.26-.46-.36-.76c-.1-.3-.17-.66-.2-1.06,0-.4,0-.92.07-1.52.13-1.52.43-2.84.89-4.03s.89-2.11,1.32-2.81c-.1-.17-.13-.33-.13-.5,0-.2.1-.36.2-.53.13-.17.26-.3.43-.43.17-.1.33-.17.56-.2.3,0,.73.17,1.32.56.56.4,1.19.89,1.88,1.49.66.59,1.32,1.22,1.98,1.88.63.66,1.16,1.25,1.55,1.78l-1.19-4.98s0-.13-.03-.26c0-.17-.03-.33-.03-.53v-.53c0-.17.07-.3.17-.36-.69-.36-1.49-.66-2.48-.89-.96-.23-2.08-.2-3.33.1-.99.23-1.82.59-2.41,1.02-.59.46-1.06.96-1.32,1.55-.3.59-.43,1.19-.46,1.85,0,.66.03,1.32.2,1.98l-2.57.59c-.26-1.09-.33-2.15-.17-3.17.13-1.02.46-1.95.99-2.77s1.22-1.55,2.08-2.15c.86-.59,1.91-1.06,3.14-1.32.86-.2,1.65-.33,2.38-.33s1.35,0,1.95.13c.59.1,1.12.26,1.62.46s.92.43,1.35.66c.07-.17.23-.23.5-.26.3,0,.66.13,1.12.43.3.2.46.36.59.53s.17.33.17.5-.03.33-.13.5c-.07.17-.17.36-.26.59-.1.23-.13.46-.17.66,0,.2,0,.5.13.89l2.44,10.36h0ZM173.06,347.06c-.1-.36-.3-.63-.59-.83s-.66-.23-1.02-.17c-.4.1-.66.3-.86.63-.17.33-.23.66-.13.99.07.36.3.63.59.83s.66.23,1.02.17c.36-.1.63-.3.83-.59.2-.3.26-.66.17-1.02ZM192.93,344.42s-.17.2-.26.26c-.1.1-.17.17-.23.26-.17.17-.33.23-.56.2-.2,0-.43-.1-.66-.2s-.43-.23-.66-.4c-.2-.17-.36-.3-.46-.4-.17-.17-.23-.33-.2-.53,0-.2.07-.4.17-.63s.17-.43.23-.66.07-.46,0-.69l-1.58-3.93c-1.29-.17-2.34-.73-3.14-1.68-.59-.73-.99-1.49-1.16-2.34s-.17-1.68.07-2.44c.2-.79.59-1.49,1.16-2.15.56-.63,1.25-1.12,2.08-1.45.79-.3,1.42-.36,1.98-.23.53.13.99.36,1.35.63.43.36.76.79,1.02,1.35.33.86.33,1.68,0,2.51-.36.83-.96,1.39-1.78,1.75-.53.2-1.06.3-1.58.23s-.99-.26-1.42-.53c.07.43.33.83.79,1.16.56.5,1.16.73,1.72.73.59,0,1.12-.13,1.65-.33.53-.23.99-.53,1.39-.86.43-.36.73-.66.92-.92.26-.33.5-.46.66-.43s.43.2.76.5c.43.4.66.66.69.79,0,.13-.07.36-.33.69-.43.5-.96.99-1.62,1.45s-1.35.86-2.11,1.16l1.52,3.63c.1.26.07.5-.1.69l6.01-2.44c.46-.2.56-.53.36-1.02l-5.15-12.74,2.77-1.12,5.58,13.76c.3.69.26,1.32-.1,1.88s-.86.96-1.52,1.25l-8.25,3.33v-.1ZM190.23,330.1c-.13-.33-.36-.59-.73-.73-.33-.13-.69-.13-1.02,0-.33.13-.59.4-.73.73s-.13.66,0,1.02c.13.33.36.59.73.73.33.13.66.13,1.02,0,.33-.13.59-.36.73-.73.13-.33.13-.69,0-1.02ZM196.07,320.96s.1.23.1.46c0,.2-.03.43-.1.66s-.13.43-.23.63c-.1.17-.2.3-.33.3-1.52.3-2.87.59-4.03.96-1.16.36-2.21.76-3.14,1.16-.92.43-1.75.83-2.48,1.29-.73.43-1.45.89-2.15,1.35h.03c-.3.17-.63.2-.99.03-.4-.17-.66-.36-.79-.66-.1-.2-.07-.46.13-.83.2-.33.3-.63.26-.86.1-.63.26-1.25.46-1.88.2-.63.46-1.22.79-1.82.33-.59.76-1.12,1.29-1.62s1.22-.92,2.05-1.25c.66-.26,1.29-.43,1.88-.5.59-.07,1.16-.03,1.75,0l-1.29-2.57,2.28-1.16,2.38,4.75c.4.23.76.43,1.09.59.33.2.66.46,1.02.86v.1ZM193.79,321.68c-.96-.69-2.01-1.12-3.14-1.25s-2.08,0-2.84.36c-1.09.56-1.85,1.19-2.28,1.95-.4.76-.69,1.52-.83,2.34,1.52-1.02,3-1.78,4.46-2.31,1.45-.53,3-.89,4.62-1.09ZM214.81,316.86c0-.17.13-.3.43-.36.3-.07.69-.03,1.22.13.33.1.56.23.73.33.17.13.26.26.3.43.03.17.03.33,0,.53-.03.2-.07.4-.07.66-.07.36,0,.73.07,1.06l3.56,8.75c.07.17.1.33.1.5s0,.33-.07.53c-.07.2-.17.46-.33.79-.17.33-.4.73-.66,1.22-.2.3-.5.43-.96.36s-.96-.23-1.49-.53c-.23-.13-.33-.3-.3-.53.07-.23.07-.43.03-.56l-3.1-3.14c-.2.53-.56.92-1.09,1.25-.66.4-1.42.5-2.24.3-.83-.2-1.52-.73-2.05-1.58-.4-.66-.53-1.42-.4-2.28s.63-1.55,1.49-2.05c.63-.4,1.35-.56,2.11-.5s1.52.5,2.24,1.32l3.47,3.93-2.84-6.57c-.3-.69-.36-1.19-.26-1.49-.1,0-.3,0-.59-.13-.33-.1-.73-.2-1.25-.23-.5-.03-1.09,0-1.75.1-.66.13-1.39.4-2.11.83-1.68,1.02-2.64,2.21-2.84,3.6s.2,2.9,1.22,4.59l-2.21,1.32c-.76-1.29-1.25-2.48-1.45-3.63-.2-1.12-.17-2.18.1-3.14.26-.96.76-1.85,1.45-2.64.69-.79,1.52-1.49,2.51-2.08,1.42-.86,2.71-1.32,3.89-1.42,1.16-.1,2.21,0,3.07.33h.07ZM212.93,324.65c-.2-.33-.46-.53-.86-.63-.36-.1-.73-.03-1.09.17-.33.2-.56.5-.63.86s0,.69.17,1.02c.2.33.5.56.86.66s.73.03,1.06-.17c.33-.2.56-.5.66-.86s.03-.73-.17-1.06ZM212.77,311.68s.03.3.07.46c0,.2.03.4,0,.56,0,.2-.07.36-.13.56-.07.17-.2.3-.36.33-1.39.46-2.64.92-3.7,1.45-1.06.5-2.01,1.02-2.87,1.55-.83.56-1.62,1.12-2.28,1.68-.69.56-1.32,1.16-1.95,1.72h.03c-.26.23-.59.3-.99.2s-.69-.26-.89-.53c-.07-.13-.1-.26,0-.5.07-.2.13-.63.2-1.25,0-.56,0-1.16.07-1.78s.23-1.25.46-1.88.59-1.25,1.06-1.85,1.12-1.19,1.95-1.68c1.45-.92,2.9-1.35,4.32-1.25,1.42.1,2.87.59,4.36,1.52.13.1.26.2.4.33s.23.26.23.4l.03-.03ZM210.59,312.44c-1.06-.56-2.15-.79-3.3-.76-1.12.03-2.05.3-2.74.79-.53.4-.96.76-1.29,1.16-.3.4-.56.79-.73,1.22-.17.4-.26.79-.33,1.19-.03.4-.07.76-.07,1.16,1.32-1.22,2.67-2.21,4.03-2.94s2.81-1.32,4.39-1.78l.03-.03ZM241.75,314.42l-2.28,1.91-7.29-8.68c-.13-.17-.26-.4-.4-.66-.1-.26-.17-.53-.13-.76-.36-.2-.69-.36-.99-.43-.3-.07-.59-.1-.96-.1s-.73.1-1.12.3c0,.07-.07.23-.1.56s-.1.66-.17.99c-.07.36-.1.66-.17.99-.03.3-.07.46-.07.53-.17.3-.33.5-.53.53-.2.03-.46,0-.79,0-.3-.03-.73-.07-1.32,0-.56.03-1.02.1-1.32.17-.4,1.02-.53,1.82-.36,2.41s.53,1.19,1.06,1.82c.53.63,1.06,1.19,1.55,1.62s.99.83,1.45,1.19.89.66,1.32.92c.43.26.79.56,1.09.86,0-.26,0-.56.03-.89s.07-.66.13-.99c.07-.3.1-.56.13-.79s.07-.36.07-.4c-.17.1-.4.17-.66.2-.26,0-.53,0-.83-.1-.3-.07-.56-.2-.86-.36-.26-.17-.53-.36-.73-.59-.59-.69-.86-1.49-.76-2.38.07-.89.46-1.62,1.16-2.21s1.49-.86,2.38-.76c.89.07,1.62.46,2.21,1.16.4.46.63.96.73,1.49.1.53.13,1.06.1,1.58s-.13,1.02-.26,1.49-.2.86-.26,1.19c-.23,1.39-.36,2.61-.36,3.66s0,1.75-.07,2.11c-.07.43-.17.76-.33.99-.17.23-.5.33-1.02.3-.56-.07-.96-.13-1.16-.23s-.3-.33-.33-.73c0-.23-.03-.46-.07-.66,0-.2-.13-.4-.33-.63-.43-.43-.89-.83-1.42-1.19s-1.06-.76-1.62-1.16c-.56-.4-1.12-.83-1.68-1.29-.59-.46-1.16-1.02-1.68-1.68-1.02-1.22-1.62-2.44-1.75-3.63s.23-2.48,1.12-3.86c.2-.3.46-.5.83-.56.43-.2.92-.3,1.45-.36.53-.07,1.06-.07,1.55-.07.07-.86.2-1.55.33-2.15.17-.56.33-.92.59-1.06.92-.46,1.78-.73,2.57-.79.79-.03,1.49.03,2.11.26.1-.17.26-.23.53-.23h.86c.33.07.59.13.76.23s.3.23.36.36c.07.13.1.33.1.5s0,.4.03.63c0,.23.07.46.17.66.1.2.26.43.53.76l6.77,8.05.1-.03ZM231.08,311.62c-.23-.3-.53-.43-.89-.46-.36,0-.69.07-.96.3-.3.23-.46.53-.46.89s.07.69.3.96c.23.3.53.43.89.46.36,0,.69-.07.96-.3.3-.23.43-.53.46-.89,0-.36-.07-.69-.3-.96ZM252.01,298.65c.33.3.59.59.83.96s.36.73.43,1.19c.07.43,0,.89-.17,1.35-.17.46-.46.96-.92,1.49-.59.69-1.35,1.06-2.28,1.09-.92.07-1.72-.23-2.38-.83-.4-.33-.66-.73-.86-1.19-.2-.46-.26-.92-.26-1.39s.13-.92.36-1.35c.23-.43.53-.83.96-1.12l-1.25-1.12s-.23-.23-.4-.43-.26-.36-.3-.53c-.43.13-.92.4-1.55.83-.59.43-1.19.89-1.82,1.39-.59.5-1.12.99-1.58,1.52-.46.5-.76.89-.86,1.12-.07.17-.13.33-.17.46s-.1.26-.17.4c-.07.13-.17.2-.3.3-.13.07-.3.13-.53.17-.36.1-.66.1-.79.1-.17,0-.33-.26-.53-.76-.23-.59-.5-1.29-.73-2.05-.23-.79-.4-1.62-.43-2.51,0-.89.13-1.82.46-2.77.33-.96.99-1.91,1.95-2.84.56-.53,1.25-1.06,2.15-1.58.86-.53,1.75-1.16,2.61-1.95l1.52,1.98c-.33.36-.69.69-1.09.96s-.83.56-1.22.79c-.43.26-.86.53-1.25.83-.43.3-.79.63-1.16,1.02-.5.56-.92,1.22-1.25,2.01s-.36,1.68,0,2.64c1.16-1.35,2.31-2.38,3.43-3.14,1.12-.73,2.05-1.29,2.77-1.62-.07-.17.03-.33.3-.53.23-.2.63-.3,1.19-.3.33,0,.63.03.79.1.17.07.33.17.4.3.1.13.17.3.17.46,0,.2.07.4.13.63.07.23.13.46.26.63.1.17.33.4.63.66l2.9,2.61v.03ZM250.59,300.43c-.3-.26-.59-.36-.96-.33-.36,0-.66.17-.92.46s-.4.63-.36.99c0,.36.17.66.46.92.26.26.59.36.96.33.36,0,.66-.17.96-.46.26-.26.36-.59.33-.96,0-.36-.17-.66-.43-.92l-.03-.03ZM267.32,282.54l-1.65,2.48-.73-.46c-.76-.17-1.58-.3-2.51-.43s-1.82-.23-2.74-.3-1.82-.1-2.67-.1-1.65.07-2.31.17c.1.63.26,1.32.56,2.05s.63,1.35,1.06,1.91c.43-.92,1.09-1.45,1.95-1.58.86-.13,1.68.03,2.44.53.76.5,1.22,1.19,1.42,2.08.17.89,0,1.68-.5,2.44-.33.53-.79.92-1.35,1.16-.56.26-1.12.33-1.68.26-.3-.07-.53-.1-.79-.17-.23-.07-.5-.17-.79-.33-.26-.17-.56-.36-.86-.66-.3-.3-.63-.66-.99-1.16-.92-1.19-1.62-2.38-2.11-3.56-.46-1.19-.79-2.15-.96-2.94-.17-.03-.33-.13-.43-.3-.1-.13-.17-.33-.2-.53v-.59c.03-.2.13-.36.26-.53.2-.2.66-.36,1.35-.5.69-.1,1.49-.17,2.38-.2h2.71c.92.03,1.68.13,2.34.23l-4.26-2.81s-.1-.07-.23-.17c-.13-.1-.26-.2-.4-.36-.13-.13-.23-.26-.36-.43-.1-.13-.13-.26-.13-.4-.76.2-1.55.53-2.41,1.02-.86.5-1.65,1.29-2.34,2.34-.56.86-.92,1.65-1.06,2.41-.13.73-.1,1.42.1,2.05s.5,1.19.92,1.68.92.92,1.52,1.32l-1.49,2.21c-.92-.63-1.68-1.35-2.28-2.18s-.99-1.75-1.19-2.67c-.2-.96-.17-1.95.03-2.97.23-1.02.69-2.08,1.39-3.14.5-.73.99-1.35,1.49-1.88.5-.5,1.02-.92,1.52-1.25s.99-.56,1.49-.76c.5-.2.96-.33,1.45-.43-.07-.17,0-.33.2-.53.2-.2.59-.36,1.12-.46.33-.03.59-.07.79,0,.2.03.36.13.46.23.1.13.2.26.23.43.07.17.13.36.23.59s.2.43.33.59.36.36.69.56l8.88,5.87.1.13ZM259.7,288.38c-.3-.2-.66-.26-.99-.2-.36.07-.63.26-.86.56-.23.33-.3.69-.2,1.02.1.36.3.63.56.83.3.2.66.26.99.2.36-.07.63-.26.86-.56.2-.3.26-.66.2-.99-.07-.36-.26-.63-.56-.86ZM277.39,261.85l-1.22,2.71-10.1-4.59c-.36-.17-.66-.36-.86-.59-.2-.23-.36-.43-.43-.63-.07.07-.23.13-.53.2-.3.07-.66.23-1.06.46s-.86.59-1.29,1.06c-.46.46-.89,1.16-1.29,2.01-.69,1.52-.83,2.84-.43,3.96s1.19,1.95,2.38,2.54c.76.33,1.42.59,1.98.76s1.09.3,1.55.36c.46.07.92.13,1.32.2.43.07.83.13,1.25.26-.1-.23-.26-.56-.4-.92-.17-.36-.3-.73-.43-1.09s-.23-.66-.33-.92-.13-.4-.17-.43c-.4.43-.92.66-1.52.79-.59.1-1.19,0-1.78-.23-.83-.4-1.42-.99-1.72-1.82-.33-.83-.3-1.65.1-2.51.36-.83.99-1.42,1.82-1.72s1.65-.3,2.51.1c.43.2.79.46,1.12.79.3.33.53.66.76,1.06.2.36.4.76.53,1.16.13.4.26.76.4,1.09.23.66.5,1.35.76,2.08.3.73.56,1.42.83,2.05s.5,1.19.69,1.68.33.83.36.99c.13.4.17.76.13,1.02,0,.3-.3.53-.79.69-.53.2-.89.3-1.12.3-.2,0-.43-.17-.63-.53-.13-.2-.23-.4-.36-.59-.1-.17-.3-.3-.56-.4-.56-.2-1.12-.33-1.72-.43-.56-.1-1.16-.2-1.75-.26-.59-.1-1.25-.2-1.91-.36-.66-.17-1.39-.43-2.18-.76-1.85-.89-3-2.21-3.53-3.96-.53-1.75-.33-3.7.59-5.78.76-1.68,1.58-2.84,2.48-3.53s1.78-1.16,2.64-1.42c0-.17.1-.33.3-.56.2-.2.5-.4.96-.53.33-.1.59-.17.79-.13.2,0,.36.07.5.17.13.1.23.23.3.4s.2.36.3.56c.13.23.26.4.43.53.17.13.43.3.79.46l9.57,4.32-.03-.07ZM265.9,263.53c-.33-.17-.69-.17-1.02-.03s-.59.36-.76.69-.17.69-.03,1.02.36.59.69.73c.33.17.66.17,1.02.03.33-.13.59-.36.73-.69.17-.33.17-.69.03-1.02s-.36-.59-.69-.73h.03ZM282.9,243.86l-.79,2.81-11.22-3.2c-.23,0-.46-.13-.73-.33-.26-.17-.43-.36-.46-.5-.53.3-1.09.69-1.65,1.19s-.96,1.25-1.19,2.24c-.17.73-.2,1.35-.13,1.85.1.53.26.96.53,1.32s.56.69.92.92c.36.26.73.46,1.12.59l-.76,2.67c-1.72-.66-2.97-1.68-3.73-3.07-.79-1.39-.92-3.07-.4-5.08.17-.69.4-1.29.66-1.78.26-.5.59-.92.92-1.32.33-.36.69-.69,1.06-.92.4-.26.76-.46,1.12-.66,0-.17.07-.33.2-.56.17-.23.43-.43.86-.66.3-.17.56-.23.76-.26.2,0,.36,0,.5.1s.26.2.36.36.23.33.4.5c.17.2.33.36.53.46.2.1.5.23.86.33l10.36,2.94-.1.07Z"/></g></svg>